<?xml version="1.0" standalone="no"?>
<!DOCTYPE svg PUBLIC "-//W3C//DTD SVG 20010904//EN"
 "http://www.w3.org/TR/2001/REC-SVG-20010904/DTD/svg10.dtd">
<svg version="1.0" xmlns="http://www.w3.org/2000/svg"
 width="512.000000pt" height="512.000000pt" viewBox="0 0 512.000000 512.000000"
 preserveAspectRatio="xMidYMid meet">
<metadata>
Created by potrace 1.16, written by Peter Selinger 2001-2019
</metadata>
<g transform="translate(0.000000,512.000000) scale(0.100000,-0.100000)"
fill="#000000" stroke="none">
<path d="M3140 5070 c102 -27 217 -85 325 -161 113 -80 342 -307 465 -462 52
-65 96 -113 98 -108 12 35 -149 271 -268 395 -222 231 -412 339 -613 352 l-82
5 75 -21z"/>
<path d="M3988 5062 c-15 -6 -9 -15 33 -51 89 -77 162 -208 265 -476 46 -120
54 -134 54 -100 0 22 -11 92 -24 155 -68 323 -157 481 -270 479 -23 0 -49 -4
-58 -7z"/>
<path d="M3730 5053 c2 -32 95 -137 115 -130 34 14 9 85 -41 118 -29 19 -74
26 -74 12z"/>
<path d="M2000 4982 c-120 -60 -381 -217 -421 -253 -34 -30 -21 -23 156 86 88
54 214 127 280 162 66 34 115 63 110 63 -6 0 -62 -26 -125 -58z"/>
<path d="M2327 4985 c-185 -30 -373 -93 -517 -173 -133 -73 -509 -333 -584
-403 -172 -161 -246 -303 -246 -474 0 -97 10 -128 101 -310 98 -197 113 -254
107 -395 -7 -146 -31 -204 -118 -292 -44 -44 -57 -62 -38 -50 118 68 188 214
188 392 0 94 -16 158 -84 330 -69 174 -80 223 -73 324 9 148 71 261 227 416
165 166 469 385 665 481 109 53 274 110 376 130 93 19 335 16 443 -5 251 -49
514 -175 726 -350 95 -79 126 -99 142 -93 8 3 -22 40 -77 94 -182 180 -428
309 -695 365 -128 26 -419 33 -543 13z"/>
<path d="M1600 4839 c-97 -47 -171 -78 -385 -161 -254 -98 -414 -209 -509
-352 -43 -65 -85 -181 -91 -254 l-5 -57 14 60 c68 289 245 457 641 608 177 67
249 98 360 155 129 66 111 66 -25 1z"/>
<path d="M2180 4814 c-133 -36 -242 -108 -382 -252 -48 -50 -132 -122 -186
-161 -121 -86 -197 -150 -254 -216 -38 -45 -35 -43 32 19 41 38 143 119 225
181 83 61 188 145 234 185 103 89 223 168 334 220 87 41 86 48 -3 24z"/>
<path d="M2887 4806 c124 -46 252 -142 267 -199 16 -63 -39 -122 -154 -167
l-55 -22 38 37 c64 62 45 122 -72 227 -49 44 -140 89 -179 87 -9 0 2 -6 25
-14 65 -20 124 -58 176 -114 52 -56 71 -94 63 -127 -6 -21 -55 -71 -106 -106
l-25 -18 30 7 c17 3 32 9 35 12 3 3 16 7 30 7 14 1 65 16 114 34 84 30 97 32
195 28 93 -3 114 -7 172 -35 72 -34 142 -91 165 -134 8 -16 14 -44 14 -64 0
-22 4 -34 10 -30 16 10 11 63 -9 103 -27 51 -96 116 -158 147 -55 27 -165 55
-221 55 -32 0 -32 0 -19 28 10 18 11 37 6 58 -19 68 -175 175 -306 209 -86 22
-106 17 -36 -9z"/>
<path d="M2304 4745 c-158 -28 -265 -73 -368 -154 -64 -50 -165 -170 -198
-234 -17 -35 3 -18 113 94 120 122 143 141 224 181 110 56 196 84 323 108 97
18 97 18 37 18 -33 0 -92 -6 -131 -13z"/>
<path d="M2671 4746 c92 -36 165 -91 195 -148 23 -45 18 -112 -12 -147 -24
-29 -105 -82 -219 -146 -50 -27 -50 -27 32 51 112 107 128 155 73 218 -50 56
-156 95 -300 110 -54 6 -53 5 26 -18 98 -28 191 -69 221 -98 17 -16 23 -33 23
-63 0 -52 -27 -90 -136 -195 -71 -69 -75 -69 -27 -1 9 13 19 49 21 81 4 56 4
57 -39 93 -60 52 -133 77 -223 77 -137 0 -262 -57 -457 -206 -200 -153 -379
-295 -379 -300 0 -6 181 131 307 232 177 143 296 214 417 249 110 32 257 1
332 -71 34 -31 36 -37 32 -79 -4 -30 -20 -67 -49 -111 -46 -72 -77 -98 -103
-88 -21 8 -20 19 4 52 46 63 34 187 -23 223 -27 17 -44 20 -112 16 -153 -8
-291 -76 -484 -241 -228 -194 -358 -335 -409 -443 -24 -52 -27 -69 -26 -158 1
-93 5 -112 54 -260 84 -253 79 -373 -22 -567 -38 -74 -54 -93 -189 -219 -34
-32 -39 -42 -39 -80 0 -47 23 -98 73 -164 l31 -40 -43 40 c-89 82 -119 158
-91 230 6 15 41 64 79 110 82 100 116 165 137 265 16 76 14 189 -4 255 -6 22
-8 10 -9 -50 -1 -153 -48 -277 -160 -423 -81 -106 -110 -176 -98 -240 6 -30
29 -59 124 -152 96 -93 127 -132 168 -205 96 -170 138 -286 178 -485 32 -161
63 -258 131 -399 30 -62 54 -125 54 -138 0 -45 41 -226 71 -318 31 -93 127
-301 135 -292 7 6 -68 312 -116 473 -22 74 -58 177 -81 227 -81 179 -136 375
-110 391 8 5 7 17 -4 43 -21 49 -82 355 -98 489 -13 105 -15 114 -46 144 -79
79 -103 156 -82 265 7 37 8 38 15 15 5 -13 9 -49 10 -80 1 -45 7 -66 33 -105
38 -57 39 -53 17 70 -31 178 -34 233 -17 359 8 66 23 152 34 190 67 250 63
221 45 321 -23 131 -21 166 25 326 57 203 112 315 192 393 114 110 302 198
422 198 65 0 147 -26 204 -65 l34 -24 99 44 c169 74 255 96 393 97 157 1 216
-18 400 -131 34 -21 67 -33 103 -36 32 -2 48 -1 40 4 -7 5 -30 9 -50 9 -53 0
-56 17 -7 40 l43 19 -104 50 c-102 49 -171 71 -275 87 l-50 8 55 7 c102 12
298 -11 333 -39 24 -19 155 -82 171 -82 14 0 12 7 -10 38 -52 71 -86 100 -148
128 -52 24 -77 28 -177 32 -74 3 -123 0 -135 -7 -16 -8 -10 -10 31 -11 59 0
138 -20 180 -44 17 -10 21 -14 10 -11 -118 39 -182 47 -319 42 -105 -3 -157
-10 -206 -25 -35 -12 -66 -20 -68 -18 -1 2 18 16 43 30 131 77 171 156 125
245 -33 66 -130 130 -220 145 l-35 6 36 -14z m-311 -331 c27 -14 30 -21 30
-62 0 -28 -9 -65 -22 -92 l-22 -45 -13 59 c-15 67 -11 82 11 34 l14 -34 1 30
c2 126 -208 108 -419 -35 -65 -44 -195 -157 -335 -289 l-100 -95 105 108 c249
256 432 377 635 421 79 18 81 18 115 0z m-838 -615 c-26 -52 -55 -108 -66
-123 -10 -14 -29 -53 -43 -84 l-24 -58 4 66 c6 89 42 165 113 239 32 33 58 59
60 58 1 -2 -19 -46 -44 -98z m-73 -256 c-6 -49 -13 -91 -16 -94 -7 -6 5 132
13 167 12 48 13 15 3 -73z m-159 -1054 c8 -85 13 -99 63 -189 60 -109 105
-213 136 -317 31 -105 25 -101 -18 11 -51 135 -79 187 -168 318 -81 119 -99
160 -90 199 7 27 55 84 63 75 3 -3 9 -46 14 -97z m227 -622 c-3 -8 -6 -5 -6 6
-1 11 2 17 5 13 3 -3 4 -12 1 -19z m10 -40 c-3 -8 -6 -5 -6 6 -1 11 2 17 5 13
3 -3 4 -12 1 -19z m10 -40 c-3 -8 -6 -5 -6 6 -1 11 2 17 5 13 3 -3 4 -12 1
-19z"/>
<path d="M1278 4616 c-224 -103 -333 -176 -404 -270 -63 -83 -89 -173 -89
-301 1 -116 15 -158 113 -338 71 -129 102 -218 109 -312 7 -90 -9 -146 -55
-199 -29 -34 -27 -33 10 6 110 113 103 241 -26 533 -55 125 -69 194 -64 310 4
70 12 116 27 153 62 154 195 287 415 414 55 32 96 58 91 58 -6 0 -63 -24 -127
-54z"/>
<path d="M2559 4520 c59 -43 69 -70 49 -129 l-17 -46 25 30 c45 56 28 102 -56
158 -43 30 -45 18 -1 -13z"/>
<path d="M3845 4309 c226 -232 302 -347 336 -514 38 -183 20 -328 -71 -565
-33 -84 -53 -152 -54 -181 -1 -45 -1 -45 -18 -24 -10 12 -41 32 -69 45 -59 25
-105 22 -167 -9 l-37 -19 -3 152 c-3 130 -25 296 -38 284 -2 -3 3 -38 12 -79
24 -113 14 -222 -30 -329 l-35 -85 5 75 c4 41 15 111 25 155 24 102 24 163 -1
252 -15 55 -19 98 -18 195 2 116 1 128 -24 179 -15 29 -46 72 -69 94 l-42 40
30 -45 c43 -63 60 -119 78 -256 8 -66 17 -132 20 -149 l5 -29 -28 27 c-52 50
-90 128 -121 248 -29 114 -54 176 -93 231 -11 16 -16 32 -13 38 6 10 -61 47
-70 38 -3 -2 13 -44 35 -91 22 -47 48 -116 57 -152 15 -60 15 -69 1 -98 -25
-53 -29 -90 -18 -163 11 -73 45 -153 82 -194 13 -14 20 -21 16 -15 -18 29 -58
168 -57 202 l1 38 8 -35 c13 -52 65 -174 111 -259 39 -73 40 -78 51 -220 5
-80 8 -177 5 -216 l-6 -70 24 55 c32 75 74 123 137 154 95 48 180 29 235 -53
73 -108 89 -260 40 -385 -25 -64 -26 -68 -7 -51 41 37 81 137 87 217 8 100 -1
141 -40 185 l-32 36 77 226 c82 241 93 283 104 402 7 83 -9 233 -31 283 -13
30 -13 29 -15 -39 l-1 -70 -15 55 c-25 94 -91 215 -172 317 -95 119 -244 271
-292 297 -24 13 10 -27 105 -125z m382 -571 c-3 -8 -6 -5 -6 6 -1 11 2 17 5
13 3 -3 4 -12 1 -19z m-706 -131 c20 -12 61 -45 91 -72 54 -49 55 -52 62 -119
4 -37 4 -94 0 -127 l-7 -59 -37 73 c-21 39 -57 110 -81 157 -24 47 -51 101
-58 120 -8 19 -16 38 -19 43 -7 13 13 7 49 -16z"/>
<path d="M1515 4261 c-38 -22 -98 -62 -132 -89 -33 -28 -64 -49 -67 -46 -3 2
-4 1 -1 -3 3 -4 -6 -18 -19 -32 -34 -36 -73 -117 -92 -192 -23 -88 -14 -220
25 -386 42 -179 46 -230 27 -343 -19 -110 -67 -220 -118 -271 -19 -19 -67 -54
-108 -78 -158 -94 -218 -155 -241 -245 -24 -95 29 -166 202 -267 156 -92 238
-198 319 -412 36 -97 111 -357 109 -382 0 -5 -14 26 -30 70 -45 120 -113 258
-164 335 -60 90 -138 168 -267 268 -195 151 -233 210 -233 362 1 129 26 192
109 275 34 34 77 73 96 88 29 23 26 22 -19 -5 -253 -152 -332 -420 -182 -621
20 -27 89 -89 154 -139 209 -159 271 -235 387 -470 88 -179 137 -320 210 -603
94 -371 186 -602 315 -796 98 -148 177 -208 305 -234 34 -6 34 -6 -19 30 -239
165 -400 475 -537 1035 -206 841 -210 855 -296 986 -69 107 -139 172 -239 223
-106 55 -145 84 -166 124 -68 132 -6 247 185 345 138 71 172 99 210 169 69
131 83 313 42 543 -66 360 1 534 300 779 39 32 11 24 -65 -18z"/>
<path d="M3810 4230 c126 -153 190 -287 205 -422 l5 -53 -15 55 c-25 88 -75
181 -125 231 -42 42 -142 109 -163 109 -5 0 18 -24 50 -54 190 -176 238 -457
142 -823 -18 -65 -34 -129 -37 -143 l-4 -25 21 21 c54 51 118 314 131 541 9
146 8 168 -10 236 -31 125 -108 254 -206 347 l-47 45 53 -65z"/>
<path d="M4255 4260 c-11 -21 -15 -51 -13 -98 l3 -67 18 40 c38 83 31 200 -8
125z"/>
<path d="M4082 4275 c2 -5 28 -62 59 -125 31 -63 61 -126 68 -140 11 -25 11
-24 6 5 -7 36 -96 222 -119 250 -10 11 -16 16 -14 10z"/>
<path d="M2989 4190 c113 -54 219 -141 289 -234 32 -41 27 -18 -6 35 -60 94
-214 204 -312 223 -27 6 -21 0 29 -24z"/>
<path d="M3425 4162 c-16 -8 -14 -10 14 -15 19 -4 59 -7 90 -7 103 0 212 -76
262 -183 17 -35 19 -37 14 -12 -18 87 -79 160 -163 197 -48 22 -183 34 -217
20z"/>
<path d="M4414 3859 c0 -283 1 -300 14 -249 20 75 20 423 1 499 -13 49 -14 28
-15 -250z"/>
<path d="M4265 4104 c-9 -15 -12 -23 -6 -20 11 7 35 46 28 46 -3 0 -12 -12
-22 -26z"/>
<path d="M3600 4093 c14 -10 52 -43 84 -73 44 -40 54 -46 38 -23 -27 39 -74
79 -116 99 -31 14 -31 14 -6 -3z"/>
<path d="M3093 4061 c62 -74 128 -236 151 -369 l6 -34 -35 31 c-28 24 -45 31
-78 31 -23 -1 -53 -7 -66 -14 -22 -12 -20 -13 27 -8 69 6 106 -11 153 -71 l39
-49 -5 58 c-10 95 -25 154 -61 232 -34 76 -108 187 -140 213 -11 7 -6 -1 9
-20z"/>
<path d="M4020 3951 c11 -22 32 -79 46 -128 33 -111 39 -265 11 -327 -22 -49
-15 -60 9 -14 23 43 31 182 15 257 -21 96 -80 251 -96 251 -3 0 4 -18 15 -39z"/>
<path d="M2905 3797 c-132 -58 -239 -138 -279 -209 -15 -28 -12 -26 24 15 55
62 148 128 251 177 88 41 91 55 4 17z"/>
<path d="M3300 3797 c0 -31 34 -251 50 -322 11 -49 20 -107 20 -128 0 -23 4
-36 10 -32 6 3 10 25 10 48 0 44 -74 424 -84 434 -3 4 -6 4 -6 0z"/>
<path d="M3818 3775 c48 -75 65 -144 66 -270 0 -66 -6 -146 -13 -178 -7 -32
-10 -61 -8 -64 14 -13 42 160 42 257 -1 120 -22 190 -76 250 -28 32 -29 32
-11 5z"/>
<path d="M2100 3684 c52 -54 97 -95 99 -91 5 14 -49 85 -93 120 -93 76 -95 65
-6 -29z"/>
<path d="M2483 3710 c-72 -55 -103 -111 -103 -184 0 -69 25 -123 75 -163 43
-34 44 -48 5 -68 -38 -20 -100 -19 -128 1 -31 21 -39 11 -12 -14 28 -26 94
-34 142 -17 21 7 38 9 38 4 0 -5 -24 -26 -52 -48 -29 -22 -59 -50 -67 -63
l-14 -23 24 21 c45 41 119 69 119 45 0 -5 -24 -27 -52 -49 -29 -21 -62 -55
-72 -73 l-20 -34 46 41 c81 71 158 82 215 31 43 -37 241 -152 249 -144 3 3
-33 33 -81 67 -47 35 -84 65 -82 67 3 2 24 -1 48 -6 24 -5 108 -17 186 -26 78
-9 156 -20 175 -25 48 -14 57 -11 23 7 -39 21 -110 39 -210 53 -118 16 -218
41 -207 52 5 5 89 14 186 20 98 7 169 15 159 19 -10 4 -34 8 -53 8 l-35 1 0
50 c0 47 2 50 25 50 14 0 40 -9 59 -21 31 -19 32 -21 17 -38 -9 -10 -13 -20
-10 -24 7 -6 175 1 183 8 2 3 -7 5 -21 5 -15 0 -43 16 -69 39 -81 71 -118 83
-233 79 -86 -3 -111 -8 -166 -33 -36 -16 -67 -32 -70 -35 -9 -12 -40 -19 -40
-10 0 12 94 90 174 144 89 59 164 88 244 94 78 6 133 -14 191 -67 22 -21 41
-36 41 -33 0 9 -52 95 -78 131 -30 41 -93 70 -149 71 -98 0 -193 -34 -358
-128 -89 -52 -128 -62 -166 -42 -17 10 -19 7 -19 -36 0 -45 0 -46 -27 -39 -60
14 -104 79 -105 154 0 60 20 100 85 168 27 29 48 53 46 53 -2 0 -27 -18 -56
-40z m292 -279 c-20 -20 -128 -71 -149 -71 -12 1 1 9 29 19 28 10 66 28 85 39
37 23 50 28 35 13z m117 -163 c-15 -15 -26 -4 -18 18 5 13 9 15 18 6 9 -9 9
-15 0 -24z m-88 -56 c5 -9 -6 -12 -38 -12 -25 0 -46 2 -46 5 0 2 15 21 32 41
l33 37 6 -30 c3 -16 9 -35 13 -41z"/>
<path d="M2276 3674 c34 -88 36 -170 5 -240 -32 -71 -67 -104 -111 -104 -32 0
-49 11 -131 86 -52 47 -114 97 -138 112 -58 34 -164 72 -202 72 -73 0 -138
-59 -154 -140 l-7 -35 38 36 c53 50 74 59 136 59 63 0 148 -37 245 -106 70
-50 85 -68 25 -30 -50 31 -125 56 -165 55 -28 -1 -26 -2 13 -10 74 -14 323
-149 306 -166 -3 -3 -38 9 -78 27 -59 27 -89 35 -154 38 -89 5 -136 -6 -196
-46 -22 -14 -46 -22 -57 -19 -14 3 -18 1 -14 -9 3 -9 -2 -15 -13 -16 -11 0 1
-4 26 -7 l44 -6 -32 -33 c-40 -41 -40 -47 -1 -26 23 12 47 14 93 10 33 -3 129
-10 211 -15 83 -5 152 -10 155 -10 13 -5 -129 -44 -240 -66 -77 -16 -140 -35
-167 -50 -58 -35 -63 -48 -9 -24 25 11 95 29 157 40 62 11 143 28 181 39 38
10 66 15 63 10 -3 -5 -60 -40 -128 -79 -173 -100 -192 -120 -59 -62 152 67
196 93 274 168 60 59 67 63 73 44 8 -27 -18 -110 -56 -177 -16 -28 -29 -66
-29 -83 0 -20 -5 -31 -14 -31 -19 0 -46 -27 -46 -45 0 -8 15 -31 33 -51 21
-25 25 -34 12 -27 -71 38 -92 118 -45 169 14 15 18 23 8 18 -26 -14 -195 -199
-213 -234 -26 -50 -55 -178 -54 -239 l0 -56 19 85 c30 145 70 221 150 294 l41
37 29 -40 c38 -52 73 -75 104 -67 29 7 43 50 24 74 -7 10 4 2 25 -15 48 -42
103 -46 116 -9 9 22 29 36 53 36 6 0 4 -8 -5 -18 -24 -26 -4 -42 50 -42 81 0
153 47 153 100 0 32 -35 86 -69 109 -24 15 -24 15 4 -28 39 -58 39 -105 1
-138 -32 -27 -44 -25 -25 5 10 17 10 25 -5 46 -38 58 -87 58 -157 0 -39 -33
-47 -35 -84 -29 -22 4 -48 8 -57 8 -9 1 -16 4 -15 7 1 3 -5 16 -12 29 -16 28
-8 72 18 110 11 14 31 71 45 126 15 55 33 112 41 126 13 24 13 28 -5 44 -28
25 -25 73 6 142 39 86 39 178 0 256 -43 84 -60 91 -30 11z m-441 -436 c4 -18
12 -39 19 -47 9 -12 6 -13 -16 -8 -15 4 -39 12 -54 17 l-27 11 28 29 c16 17
32 30 36 30 4 0 11 -15 14 -32z m219 6 c28 -28 34 -54 14 -54 -7 0 -30 -3 -52
-7 -36 -6 -38 -5 -27 15 6 11 11 32 11 46 0 34 20 33 54 0z"/>
<path d="M1785 3705 c22 -15 68 -58 103 -96 97 -105 260 -204 289 -176 20 21
-148 155 -302 241 -97 54 -150 72 -90 31z"/>
<path d="M2509 3653 l-24 -28 28 24 c25 23 32 31 24 31 -2 0 -14 -12 -28 -27z"/>
<path d="M3824 3548 c0 -73 -6 -171 -13 -216 -12 -82 -6 -209 9 -181 4 8 15
76 25 151 19 144 16 254 -8 337 -11 40 -12 33 -13 -91z"/>
<path d="M2795 3611 c-27 -16 -63 -44 -80 -62 l-30 -33 40 31 c22 17 62 45 89
62 63 39 48 41 -19 2z"/>
<path d="M2254 3547 c0 -49 2 -54 9 -32 6 16 6 40 0 58 -8 28 -10 25 -9 -26z"/>
<path d="M4832 3533 c-28 -65 -40 -143 -47 -308 -8 -170 -33 -372 -79 -645
-19 -113 -37 -221 -41 -240 -10 -64 55 133 90 270 19 74 58 268 86 430 46 264
51 306 46 400 -7 152 -20 174 -55 93z"/>
<path d="M2480 3501 c0 -6 4 -13 10 -16 6 -3 7 1 4 9 -7 18 -14 21 -14 7z"/>
<path d="M2878 3416 c-48 -17 -121 -61 -139 -83 -11 -13 -7 -12 17 4 45 32
127 62 188 69 84 10 150 -14 231 -86 47 -42 76 -60 94 -59 l26 0 -24 10 c-14
5 -46 32 -73 60 -65 67 -134 99 -218 98 -36 0 -81 -6 -102 -13z"/>
<path d="M4066 3394 c-3 -9 -6 -30 -6 -47 0 -18 -9 -86 -20 -152 -10 -66 -15
-124 -11 -128 11 -11 38 138 47 256 6 83 3 105 -10 71z"/>
<path d="M1765 3359 c-16 -5 -43 -20 -60 -34 l-30 -26 55 27 c30 15 82 30 115
34 l60 7 -55 1 c-30 0 -68 -4 -85 -9z"/>
<path d="M4608 3200 c-10 -181 -46 -368 -153 -803 -90 -367 -102 -417 -90
-405 10 10 177 659 205 798 35 175 52 336 48 450 -3 85 -3 85 -10 -40z"/>
<path d="M330 3218 c-16 -29 -30 -57 -30 -62 0 -12 1 -10 38 57 18 31 30 57
27 57 -2 0 -18 -24 -35 -52z"/>
<path d="M3411 3251 c-36 -36 -37 -69 -6 -156 48 -135 45 -275 -8 -380 -11
-22 -38 -66 -59 -98 -73 -108 -85 -145 -112 -362 -25 -194 -51 -318 -81 -376
-23 -43 -18 -47 11 -8 72 96 114 227 134 419 15 143 33 199 97 307 104 175
119 293 58 468 -41 116 -42 133 -15 168 25 31 9 46 -19 18z"/>
<path d="M3602 3240 c0 -14 2 -19 5 -12 2 6 2 18 0 25 -3 6 -5 1 -5 -13z"/>
<path d="M3155 3199 c27 -12 60 -18 100 -17 l60 0 -50 8 c-27 4 -68 12 -90 19
-58 16 -66 12 -20 -10z"/>
<path d="M3613 3160 c0 -30 2 -43 4 -27 2 15 2 39 0 55 -2 15 -4 2 -4 -28z"/>
<path d="M3215 3146 c17 -8 32 -12 34 -10 7 7 -3 12 -34 18 l-30 6 30 -14z"/>
<path d="M1685 3120 c-4 -7 8 -8 37 -4 57 9 61 14 10 14 -22 0 -44 -5 -47 -10z"/>
<path d="M2630 3047 c35 -37 66 -67 68 -67 14 0 -71 98 -98 114 -29 16 -25 8
30 -47z"/>
<path d="M3317 3085 c99 -79 76 -263 -53 -420 -116 -140 -134 -188 -140 -365
l-4 -125 39 145 c49 184 55 197 136 305 37 50 77 110 88 135 24 56 33 170 17
230 -12 46 -75 120 -101 120 -8 0 0 -11 18 -25z"/>
<path d="M4421 3094 c0 -11 3 -14 6 -6 3 7 2 16 -1 19 -3 4 -6 -2 -5 -13z"/>
<path d="M3210 3077 c28 -22 68 -81 89 -132 l21 -50 -6 40 c-4 22 -12 52 -20
66 -15 31 -74 89 -88 89 -6 0 -4 -6 4 -13z"/>
<path d="M4402 2990 c-7 -34 -40 -145 -73 -246 -32 -101 -59 -190 -58 -197 0
-6 27 66 59 161 59 172 95 311 88 333 -2 6 -9 -17 -16 -51z"/>
<path d="M2420 2996 c0 -8 4 -17 9 -20 5 -4 7 3 4 14 -6 23 -13 26 -13 6z"/>
<path d="M188 2919 c-19 -61 -23 -96 -23 -204 0 -189 33 -285 173 -500 60 -93
188 -265 197 -265 2 0 -27 44 -65 98 -123 174 -236 430 -266 604 -17 97 -14
228 6 297 19 68 1 41 -22 -30z"/>
<path d="M1521 2963 c-34 -83 -31 -206 8 -279 24 -47 25 -45 6 26 -17 63 -20
189 -5 239 12 43 7 51 -9 14z"/>
<path d="M3834 2976 c-66 -29 -99 -72 -177 -228 -42 -84 -79 -164 -82 -178
-11 -40 116 159 143 225 34 83 55 110 105 134 112 54 173 -4 184 -177 9 -139
-29 -231 -146 -356 -85 -91 -140 -113 -201 -81 -37 19 -50 43 -50 95 l0 41
-44 -36 c-49 -40 -58 -60 -101 -215 -35 -130 -87 -234 -185 -370 -132 -184
-280 -341 -450 -476 -94 -75 -102 -83 -171 -190 -56 -85 -108 -123 -207 -154
-87 -27 -206 -36 -272 -20 -52 13 -119 61 -141 102 -8 14 -3 13 27 -7 102 -69
276 -71 412 -4 119 58 256 217 319 369 35 86 27 92 -17 12 -95 -174 -184 -276
-285 -327 -54 -27 -69 -29 -160 -30 -141 0 -233 29 -295 94 -54 55 -70 99
-105 291 -25 135 -28 186 -5 88 15 -60 58 -161 59 -137 1 8 -14 69 -33 136
-19 66 -44 173 -56 237 -12 65 -24 115 -26 113 -4 -4 8 -199 26 -420 23 -279
113 -498 231 -558 21 -10 69 -26 106 -35 37 -8 76 -20 87 -26 12 -6 95 -84
186 -173 91 -89 190 -178 220 -197 58 -36 90 -51 90 -42 0 4 -20 43 -46 87
-92 165 -109 212 -109 312 0 97 12 133 64 188 45 49 241 191 356 258 132 77
250 188 313 295 44 73 117 243 108 251 -3 3 -24 -33 -47 -78 -80 -161 -154
-258 -244 -318 -22 -15 -105 -61 -185 -102 -127 -64 -154 -83 -215 -145 -38
-40 -83 -80 -99 -90 l-28 -18 25 50 c45 88 83 131 155 173 246 144 514 445
652 733 54 113 75 134 148 143 31 3 73 15 93 25 l36 18 -8 -37 c-4 -20 -13
-67 -18 -106 -6 -38 -20 -124 -31 -190 -11 -66 -33 -219 -50 -340 -37 -259
-59 -366 -106 -515 -83 -263 -122 -317 -354 -483 -24 -17 -24 -17 10 -1 243
116 370 320 414 664 36 279 84 494 171 759 30 91 57 186 60 211 4 25 8 55 11
68 6 30 -16 29 -58 -5 -18 -15 1 9 43 53 123 130 168 207 189 323 20 114 -27
271 -94 312 -36 22 -97 24 -142 5z m-1324 -2101 c15 -22 36 -65 49 -95 l22
-54 -27 24 c-48 44 -133 153 -128 162 14 22 59 2 84 -37z"/>
<path d="M813 2909 c-78 -62 -137 -135 -177 -219 -26 -56 -31 -78 -34 -165 -3
-81 0 -111 17 -159 20 -56 101 -187 156 -251 14 -16 -6 17 -44 75 -84 126
-111 192 -118 285 -11 147 38 260 173 393 52 50 93 92 92 92 -2 -1 -31 -23
-65 -51z"/>
<path d="M3587 2872 c-4 -31 -18 -90 -32 -131 -14 -41 -23 -76 -21 -78 2 -2
18 29 35 70 32 79 50 180 34 190 -6 4 -13 -17 -16 -51z"/>
<path d="M3884 2890 c-27 -11 -87 -81 -111 -129 -11 -23 -17 -56 -17 -90 2
-47 -3 -62 -37 -114 -21 -33 -36 -63 -33 -68 9 -15 47 -10 101 15 60 28 103
90 103 149 0 32 -4 39 -38 56 -21 11 -44 26 -51 34 -10 13 -6 15 36 14 27 -1
47 2 47 8 -1 6 -5 28 -9 49 -11 65 18 28 49 -62 39 -112 39 -111 46 -59 9 68
-4 164 -26 188 -19 21 -28 22 -60 9z"/>
<path d="M2680 2853 c129 -100 186 -183 219 -319 15 -59 20 -70 20 -44 1 53
-25 165 -52 223 -40 85 -138 166 -202 167 -16 0 -13 -5 15 -27z"/>
<path d="M2850 2847 c0 -5 13 -27 29 -50 80 -117 123 -242 147 -421 23 -175
21 -340 -5 -450 -22 -94 -81 -228 -125 -285 -41 -54 -19 -51 31 4 106 119 161
299 149 485 -4 58 -11 174 -16 258 -11 176 -27 227 -103 332 -58 80 -106 138
-107 127z"/>
<path d="M1646 2610 c2 -74 11 -164 19 -200 15 -64 114 -314 122 -306 7 7 -27
139 -72 276 -38 118 -51 179 -69 330 -3 19 -3 -26 0 -100z"/>
<path d="M2000 2665 c-76 -111 -110 -238 -110 -413 0 -114 19 -248 44 -317 19
-52 19 -40 2 81 -42 289 -25 438 73 632 17 34 29 62 27 62 -3 0 -19 -20 -36
-45z"/>
<path d="M3701 2703 c-1 -17 30 -95 36 -90 2 3 -5 26 -16 53 -11 27 -20 43
-20 37z"/>
<path d="M3916 2633 c-15 -85 -51 -146 -99 -168 -29 -12 -30 -13 -8 -14 16 -1
40 15 72 48 48 47 49 49 49 110 0 33 -2 61 -4 61 -2 0 -7 -17 -10 -37z"/>
<path d="M2160 2626 c23 -20 96 -46 133 -46 17 0 54 7 81 15 73 22 142 19 201
-10 86 -41 126 -89 155 -183 27 -86 29 -253 5 -362 -24 -107 -85 -230 -137
-274 -68 -59 -121 -72 -303 -79 -202 -7 -220 -2 -257 72 -16 30 -28 46 -28 35
0 -40 22 -96 50 -127 l29 -32 153 3 c234 4 314 27 395 115 99 108 171 339 161
520 -11 183 -104 321 -242 358 -41 11 -139 7 -227 -9 -30 -5 -66 -4 -105 4
-77 16 -81 17 -64 0z"/>
<path d="M2355 2558 c-22 -5 -74 -7 -116 -4 -97 7 -145 -7 -189 -53 -68 -71
-93 -219 -71 -410 14 -121 52 -278 76 -314 28 -43 59 -49 247 -45 156 3 178 5
219 26 118 58 189 185 209 374 30 297 -135 485 -375 426z m71 -73 c11 -17 14
-35 10 -60 -7 -34 -8 -35 -56 -35 l-50 0 0 35 c0 19 5 46 12 60 15 34 61 35
84 0z m-117 -7 c4 -13 6 -40 3 -60 l-4 -38 -55 0 -56 0 5 45 c7 57 22 75 64
75 27 0 36 -5 43 -22z m209 9 c6 -6 14 -26 18 -42 l7 -30 10 28 c5 15 12 27
17 27 13 0 40 -30 40 -43 -1 -57 -44 -84 -61 -39 -9 24 -11 25 -20 10 -10 -18
-35 -23 -63 -12 -19 7 -22 64 -6 95 12 22 42 25 58 6z m-333 -57 c0 -54 0 -55
-30 -55 -17 0 -36 -8 -43 -17 -24 -32 -42 -22 -42 23 0 69 39 113 41 47 1 -20
3 -25 6 -13 11 53 26 76 47 73 18 -3 21 -10 21 -58z m452 -55 c3 -26 0 -35
-12 -35 -16 0 -20 34 -9 65 9 22 16 12 21 -30z m-577 -22 c0 -20 -3 -24 -11
-16 -7 7 -9 19 -6 27 10 24 17 19 17 -11z m610 -4 c0 -11 -4 -17 -10 -14 -5 3
-10 15 -10 26 0 11 5 17 10 14 6 -3 10 -15 10 -26z m-359 -366 c-11 -15 -23
-40 -27 -55 -5 -24 -2 -29 21 -38 30 -11 75 -13 100 -4 8 4 29 25 45 49 30 43
84 75 100 59 5 -5 -3 -36 -18 -73 -33 -79 -43 -83 -205 -79 l-112 3 -3 32 c-5
50 24 99 71 122 22 11 43 19 45 16 2 -2 -5 -16 -17 -32z m254 -161 c-11 -2
-28 -13 -39 -24 -10 -11 -24 -17 -31 -14 -8 3 -16 0 -19 -7 -2 -7 -5 0 -5 15
-1 28 2 30 64 41 11 2 27 1 35 -2 11 -4 10 -6 -5 -9z m-105 -12 c0 -3 -7 -16
-16 -28 -18 -26 -36 -28 -54 -7 -12 14 -15 14 -30 0 -24 -22 -49 -19 -60 8 -5
12 -9 17 -9 10 -1 -7 -11 -18 -23 -24 -18 -10 -24 -8 -35 7 -13 18 -15 18 -24
2 -14 -25 -29 -22 -29 5 -1 20 -2 20 -11 4 -12 -20 -29 -14 -29 11 0 16 16 17
160 17 88 0 160 -2 160 -5z m-356 -26 c3 -8 2 -12 -4 -9 -6 3 -10 10 -10 16 0
14 7 11 14 -7z"/>
<path d="M4340 2503 c-6 -37 -16 -122 -20 -188 -10 -132 -44 -306 -114 -579
-25 -99 -44 -181 -42 -183 4 -4 88 276 116 384 34 136 60 310 60 401 0 48 5
118 10 156 13 90 6 97 -10 9z"/>
<path d="M1494 2445 c3 -16 8 -61 11 -99 4 -39 13 -79 20 -90 7 -12 32 -99 55
-194 23 -95 44 -171 46 -169 5 5 -44 306 -60 367 -20 74 -77 223 -72 185z"/>
<path d="M1561 2450 c-1 -8 8 -46 18 -83 30 -103 49 -207 66 -357 19 -167 36
-232 85 -337 45 -96 60 -110 24 -23 -40 98 -62 196 -83 365 -12 88 -32 205
-45 260 -24 98 -64 205 -65 175z"/>
<path d="M3640 2431 c0 -29 35 -61 65 -61 15 0 40 14 63 35 l37 36 -40 -16
c-22 -9 -45 -19 -51 -21 -6 -3 -25 7 -43 21 -30 26 -31 26 -31 6z"/>
<path d="M4151 2263 c-18 -70 -41 -157 -52 -193 -21 -73 -17 -92 7 -35 18 43
86 334 82 347 -2 5 -18 -48 -37 -119z"/>
<path d="M4221 2287 c-18 -56 -56 -158 -83 -227 -88 -220 -134 -375 -248 -830
-119 -472 -153 -587 -201 -681 -16 -32 -29 -61 -29 -64 0 -14 123 91 135 115
17 34 48 173 80 355 48 278 69 354 210 775 53 157 109 337 125 400 29 114 54
249 47 256 -1 2 -18 -43 -36 -99z"/>
<path d="M4956 2363 c-23 -80 -53 -299 -37 -273 17 28 60 290 47 290 -2 0 -7
-8 -10 -17z"/>
<path d="M2962 2315 c0 -16 2 -22 5 -12 2 9 2 23 0 30 -3 6 -5 -1 -5 -18z"/>
<path d="M3713 2108 c-62 -117 -116 -273 -134 -387 -18 -120 -5 -121 24 -3 15
62 50 173 76 245 49 134 62 177 55 177 -2 0 -11 -15 -21 -32z"/>
<path d="M800 2076 c0 -2 8 -10 18 -17 15 -13 16 -12 3 4 -13 16 -21 21 -21
13z"/>
<path d="M3511 1999 c-12 -39 -20 -73 -17 -76 2 -3 15 27 27 66 11 40 19 74
17 76 -2 3 -14 -27 -27 -66z"/>
<path d="M1720 2054 c0 -3 11 -49 25 -102 13 -53 40 -174 60 -269 32 -154 72
-298 74 -266 2 29 -92 457 -119 546 -26 83 -40 115 -40 91z"/>
<path d="M1370 1975 c0 -5 5 -17 10 -25 5 -8 10 -10 10 -5 0 6 -5 17 -10 25
-5 8 -10 11 -10 5z"/>
<path d="M1861 1954 c0 -11 3 -14 6 -6 3 7 2 16 -1 19 -3 4 -6 -2 -5 -13z"/>
<path d="M1390 1929 c0 -4 9 -35 19 -70 31 -101 65 -243 130 -544 34 -154 73
-321 87 -370 27 -95 84 -249 89 -243 2 2 -12 48 -31 102 -43 124 -75 252 -158
626 -63 283 -108 458 -127 490 -4 8 -9 12 -9 9z"/>
<path d="M976 1808 c4 -7 22 -34 40 -59 19 -26 59 -89 89 -140 30 -52 55 -89
55 -84 0 26 -170 295 -186 295 -3 0 -2 -6 2 -12z"/>
<path d="M3004 1611 c-195 -199 -254 -264 -254 -283 0 -15 293 259 344 321 59
73 130 171 122 171 -3 0 -98 -94 -212 -209z"/>
<path d="M2728 1729 c-42 -54 -109 -103 -182 -133 -45 -19 -71 -21 -236 -21
-219 0 -236 6 -282 94 -23 43 -28 48 -28 28 0 -71 50 -130 124 -148 29 -7 126
-13 231 -13 206 -1 235 7 319 84 38 35 105 145 94 155 -2 1 -20 -19 -40 -46z"/>
<path d="M3846 1717 c-16 -34 -56 -125 -91 -202 l-62 -141 -6 -124 c-5 -105
-25 -227 -51 -315 -4 -11 6 4 20 34 39 80 236 793 222 806 -2 2 -16 -24 -32
-58z"/>
<path d="M4470 1602 c0 -114 -199 -763 -309 -1005 -45 -101 -230 -437 -263
-479 -17 -21 -25 -38 -20 -38 21 0 149 109 195 165 69 86 177 312 242 506 71
214 185 662 192 759 4 60 2 83 -11 108 -9 18 -19 32 -21 32 -3 0 -5 -22 -5
-48z"/>
<path d="M790 1510 c0 -28 29 -70 47 -70 19 0 10 46 -14 73 -21 23 -33 22 -33
-3z"/>
<path d="M2170 1501 c-41 -9 -96 -36 -106 -53 -5 -8 -2 -9 12 -3 28 12 146 36
151 31 2 -2 -9 -7 -25 -10 -16 -4 -44 -20 -63 -37 l-34 -30 50 24 c67 32 94
39 200 46 l90 7 -50 11 c-70 16 -183 23 -225 14z"/>
<path d="M1680 1494 c0 -37 216 -352 286 -414 15 -14 -2 11 -38 55 -72 88
-146 196 -208 302 -22 37 -40 63 -40 57z"/>
<path d="M3528 1483 c-26 -30 -47 -77 -69 -159 -17 -63 -20 -96 -17 -166 4
-65 2 -92 -8 -107 -19 -26 -193 -160 -335 -257 -109 -75 -216 -170 -205 -182
3 -3 14 2 23 10 10 8 72 41 138 73 l119 58 175 176 176 176 6 180 c3 99 9 188
13 198 5 9 6 17 4 17 -3 0 -12 -8 -20 -17z"/>
<path d="M2652 1416 c-15 -59 -83 -130 -141 -147 -53 -16 -46 -24 9 -9 76 20
160 126 148 186 -1 9 -9 -4 -16 -30z"/>
<path d="M1306 1415 c3 -11 21 -58 39 -105 17 -47 53 -150 79 -230 47 -143 73
-207 60 -145 -13 59 -123 371 -154 435 -17 36 -28 56 -24 45z"/>
<path d="M3846 1330 c-34 -76 -57 -141 -107 -310 -85 -283 -170 -485 -260
-616 -46 -66 -187 -212 -254 -263 -16 -12 -21 -18 -10 -12 42 20 151 106 203
160 110 114 255 365 311 538 16 48 45 162 66 253 20 91 47 196 61 234 13 39
22 71 20 73 -2 2 -15 -24 -30 -57z"/>
<path d="M1270 1307 c0 -4 7 -22 16 -38 13 -27 100 -236 261 -634 52 -128 76
-164 37 -55 -73 204 -312 758 -314 727z"/>
<path d="M1807 1143 c9 -18 55 -83 101 -145 47 -62 112 -156 146 -208 34 -52
97 -136 139 -187 77 -91 252 -263 268 -263 13 0 22 47 15 78 -4 18 -56 73
-149 162 -283 269 -376 370 -520 570 -17 24 -17 24 0 -7z"/>
<path d="M1096 1063 c26 -38 107 -147 179 -243 159 -211 226 -308 290 -418 26
-45 50 -82 52 -82 7 0 -68 139 -122 225 -31 50 -89 135 -128 189 -80 114 -304
396 -313 396 -3 0 16 -30 42 -67z"/>
<path d="M4098 949 c-28 -16 -67 -91 -74 -142 -14 -101 56 -21 85 97 13 55 13
58 -11 45z"/>
<path d="M3420 592 c-70 -27 -508 -246 -523 -261 -11 -11 145 46 277 101 54
23 147 70 205 105 149 90 158 102 41 55z"/>
</g>
</svg>