<?xml version="1.0" standalone="no"?>
<!DOCTYPE svg PUBLIC "-//W3C//DTD SVG 20010904//EN"
 "http://www.w3.org/TR/2001/REC-SVG-20010904/DTD/svg10.dtd">
<svg version="1.0" xmlns="http://www.w3.org/2000/svg"
 width="512.000000pt" height="512.000000pt" viewBox="0 0 512.000000 512.000000"
 preserveAspectRatio="xMidYMid meet">
<metadata>
Created by potrace 1.16, written by Peter Selinger 2001-2019
</metadata>
<g transform="translate(0.000000,512.000000) scale(0.100000,-0.100000)"
fill="#000000" stroke="none">
<path d="M730 5022 c-52 -54 -115 -128 -139 -163 l-44 -64 99 96 c55 53 134
126 176 163 l78 66 -38 0 c-34 0 -45 -8 -132 -98z"/>
<path d="M893 5032 c-204 -168 -416 -408 -544 -617 -29 -47 -72 -101 -96 -121
-27 -22 -43 -43 -43 -57 0 -28 48 -111 94 -162 33 -38 35 -39 36 -16 1 101
103 330 217 491 39 54 139 168 232 263 90 92 162 169 159 172 -3 3 -22 -4 -42
-16 -20 -12 -40 -18 -44 -15 -7 8 76 91 138 139 24 18 30 27 18 27 -9 0 -65
-40 -125 -88z"/>
<path d="M1270 5082 c-101 -60 -271 -175 -339 -232 -33 -28 -61 -47 -61 -42 0
12 131 158 193 215 l52 49 -53 -29 c-102 -54 -375 -359 -463 -517 -31 -57 -27
-53 132 106 185 185 276 261 464 385 127 84 154 103 145 103 -3 0 -34 -17 -70
-38z"/>
<path d="M1955 5089 c-176 -65 -506 -241 -720 -385 -110 -75 -148 -95 -162
-86 -21 14 -35 55 -28 88 8 44 -1 44 -101 -4 -126 -61 -282 -196 -361 -312
-76 -112 -153 -300 -153 -375 0 -79 61 -119 118 -79 17 12 22 24 20 47 -3 29
-7 32 -41 35 -26 2 -42 10 -53 26 -13 21 -13 28 6 77 45 122 156 278 289 408
70 68 150 131 166 131 4 0 -23 -33 -60 -72 -37 -40 -90 -104 -117 -143 -62
-87 -62 -114 0 -135 28 -9 41 -19 37 -28 -3 -7 -14 -59 -26 -115 -18 -85 -20
-122 -15 -222 3 -66 15 -158 25 -205 22 -99 22 -100 -72 -218 -70 -88 -168
-234 -199 -297 -44 -88 -60 -169 -65 -336 -6 -169 13 -363 46 -488 10 -36 33
-120 50 -185 18 -66 43 -145 56 -175 l23 -56 -24 -13 c-27 -14 -30 -35 -13
-126 11 -64 76 -276 110 -361 l19 -50 -30 35 c-53 61 -109 152 -164 265 -60
123 -142 341 -156 418 -23 119 -3 199 57 227 18 8 33 20 33 25 0 6 -18 51 -39
100 -76 176 -86 223 -86 390 1 131 4 162 27 247 34 122 69 199 145 318 77 121
137 240 167 332 39 119 40 139 4 68 -35 -67 -80 -132 -182 -260 -33 -42 -78
-116 -103 -170 -24 -52 -52 -113 -63 -135 l-18 -40 -11 28 c-14 36 -14 90 0
217 11 102 6 175 -12 165 -5 -4 -9 -15 -9 -25 0 -11 -16 -66 -35 -122 -20 -57
-50 -155 -67 -218 -43 -160 -42 -222 6 -375 21 -66 45 -133 53 -150 8 -16 11
-25 5 -20 -5 6 -34 62 -63 125 l-54 115 0 125 c1 141 12 189 92 408 26 72 48
151 51 183 l4 57 -89 98 c-49 55 -108 123 -131 152 l-42 54 0 -561 0 -561 35
-70 c49 -97 106 -190 181 -291 62 -86 63 -87 52 -125 -21 -72 -14 -228 17
-349 38 -154 89 -276 220 -531 63 -122 128 -256 145 -298 84 -212 150 -288
399 -461 l84 -59 -94 115 c-156 190 -176 220 -244 361 -36 75 -65 138 -65 142
0 4 58 -80 129 -186 172 -258 317 -420 464 -518 41 -27 41 -27 61 -148 26
-149 86 -248 264 -434 70 -73 101 -98 119 -98 29 0 36 -13 -73 132 -126 167
-217 326 -253 442 -30 98 -25 103 13 11 18 -44 43 -100 56 -125 21 -42 107
-170 114 -170 2 0 0 19 -5 43 -10 53 -10 215 0 242 6 16 11 11 26 -30 92 -249
140 -355 231 -512 l19 -33 188 0 c103 0 187 2 187 5 0 3 -24 38 -53 78 -29 39
-114 164 -189 277 l-135 205 -116 89 c-113 86 -247 215 -247 238 0 6 9 3 21
-8 15 -14 24 -16 37 -8 26 17 25 44 -3 127 -28 84 -31 125 -12 151 17 23 44
12 154 -59 107 -70 158 -122 228 -232 89 -139 158 -201 262 -238 62 -22 95
-51 125 -108 19 -36 23 -63 28 -192 5 -146 5 -149 19 -105 28 94 84 194 137
247 42 43 84 68 217 133 91 44 168 80 172 80 4 0 -28 -33 -71 -73 -42 -39 -90
-92 -106 -116 -27 -44 -36 -85 -20 -95 5 -3 82 67 173 155 187 183 293 275
430 371 52 37 107 81 122 96 15 16 49 79 77 141 58 133 76 159 172 243 142
124 240 224 259 260 24 47 71 244 110 458 17 91 38 190 47 220 l17 55 5 -80 5
-80 63 110 c68 121 73 145 42 214 -11 24 -20 45 -20 47 0 2 16 4 36 4 32 0 37
-4 56 -47 25 -57 34 -140 20 -182 -9 -24 -8 -29 3 -24 30 11 58 113 59 215 1
68 5 99 13 103 23 8 38 -38 37 -115 0 -65 -5 -86 -38 -160 -21 -47 -52 -105
-68 -130 -27 -42 -25 -40 32 20 158 168 191 285 114 403 l-25 38 -33 -26 c-77
-59 -139 -38 -187 61 -33 70 -36 99 -13 108 36 14 51 6 62 -33 16 -53 15 -61
-8 -61 -28 0 -26 -31 5 -60 35 -33 83 -31 132 3 22 16 39 23 42 16 2 -6 14 -1
27 12 l24 22 -22 11 c-12 6 -37 32 -55 57 l-33 47 31 51 c41 65 51 166 25 255
l-17 57 -19 -23 c-10 -14 -28 -51 -40 -84 l-21 -59 5 47 c7 60 41 132 72 153
28 18 26 21 43 -71 24 -128 10 -235 -39 -304 -18 -25 -19 -33 -9 -52 11 -21
12 -21 26 -2 47 62 103 229 103 306 0 18 -11 57 -25 86 -26 55 -17 74 11 20
41 -79 21 -235 -50 -385 -29 -59 -32 -74 -21 -83 25 -20 56 8 91 85 38 82 59
167 49 193 -4 9 -13 52 -21 95 -15 92 -41 147 -77 165 -29 14 -36 32 -13 32
24 0 66 -41 91 -88 l24 -47 1 35 c0 19 7 73 15 120 19 109 19 249 0 325 -23
90 -105 248 -188 362 -88 120 -108 163 -141 308 -42 183 -115 383 -135 371 -5
-3 -23 16 -40 42 -17 27 -43 59 -57 73 -23 21 -22 17 9 -31 57 -86 120 -295
142 -470 l7 -55 -67 85 c-49 63 -62 86 -51 88 20 4 20 38 1 119 -44 188 -180
370 -355 474 -99 58 -119 46 -25 -16 86 -56 122 -96 194 -216 61 -102 78 -166
63 -241 l-11 -53 3 45 c8 116 -28 203 -123 304 -67 70 -143 123 -253 176 l-82
40 -200 -1 c-193 0 -199 -1 -151 -15 218 -64 410 -145 521 -222 121 -83 144
-125 144 -269 -1 -112 -9 -154 -51 -264 -36 -93 -59 -118 -159 -173 -50 -28
-76 -48 -78 -62 -2 -11 31 -123 73 -250 88 -267 96 -314 66 -399 -27 -76 -26
-87 5 -124 34 -41 46 -39 28 4 -20 49 -18 64 22 144 l35 71 -52 152 c-80 231
-73 273 61 402 50 47 81 87 101 130 16 33 29 67 29 74 0 21 16 13 28 -13 26
-56 14 -81 -77 -179 l-46 -49 38 28 c21 16 52 45 68 64 l29 36 -16 -55 c-23
-79 -51 -146 -81 -197 -14 -24 -23 -46 -20 -49 8 -9 68 25 120 68 26 21 47 37
47 34 0 -6 -51 -67 -169 -206 -77 -90 -27 -49 101 84 l107 111 -14 -50 c-30
-101 -30 -98 -7 -86 86 46 97 26 15 -26 -32 -20 -52 -38 -45 -41 17 -5 15 -35
-8 -122 -10 -41 -17 -77 -14 -80 12 -11 56 60 90 148 19 50 37 92 39 92 6 0
-8 -99 -22 -150 -13 -46 -27 -66 -98 -137 -121 -120 -187 -240 -202 -364 l-6
-48 -28 38 c-53 73 -63 64 -24 -21 59 -125 17 -176 -174 -212 -183 -35 -267
-66 -335 -126 l-34 -30 -12 49 c-9 37 -26 65 -66 110 -73 80 -208 181 -234
174 -18 -5 -18 -7 -5 -33 8 -15 40 -59 72 -98 77 -94 123 -171 150 -251 14
-42 23 -57 23 -40 0 29 -29 118 -54 167 -21 41 -8 41 32 0 39 -41 75 -122 67
-149 -5 -16 5 -12 56 21 34 22 85 47 113 55 55 17 160 19 218 6 37 -9 40 -7
120 60 46 38 90 69 99 69 8 0 28 -13 43 -29 l29 -30 -93 -106 c-107 -122 -132
-139 -204 -132 -45 4 -55 10 -91 51 -52 60 -85 67 -158 33 -62 -28 -98 -70
-132 -154 -19 -46 -25 -54 -30 -38 -19 56 -60 128 -94 166 l-39 44 49 -100
c27 -55 52 -119 55 -143 l7 -42 -94 45 c-122 58 -391 125 -506 125 -41 0 -42
12 -5 71 52 81 218 215 255 205 18 -4 64 32 86 69 11 19 12 18 7 -5 -3 -14 -9
-35 -12 -47 -8 -30 10 -30 30 -1 32 46 9 148 -46 205 -49 51 -104 43 -177 -23
-62 -55 -49 -59 26 -9 37 25 75 45 85 45 17 0 88 -63 88 -78 0 -5 -26 -6 -58
-4 -43 3 -68 -1 -93 -13 -59 -31 -138 -98 -188 -161 -41 -51 -57 -63 -95 -73
-77 -19 -84 -17 -165 69 -67 71 -80 80 -111 80 -20 0 -46 -7 -58 -16 -21 -14
-22 -14 -22 8 0 27 93 120 113 112 8 -3 24 -23 36 -45 13 -22 25 -38 27 -36
11 11 -34 102 -58 120 l-28 21 -25 -24 -25 -23 0 27 c0 51 44 105 85 106 10 0
35 -15 54 -32 25 -25 32 -28 26 -13 -4 11 -9 47 -12 81 -5 57 -4 62 27 97 18
20 37 37 44 37 6 0 29 -14 50 -32 l38 -31 -16 31 c-21 40 -20 47 6 82 l22 30
25 -24 c14 -13 36 -27 49 -31 28 -8 28 -19 -1 -38 -28 -18 -73 -99 -81 -147
-6 -30 -5 -33 6 -16 95 141 144 179 200 155 31 -13 51 -37 63 -77 6 -21 5 -23
-13 -13 -38 20 -76 13 -112 -21 -45 -45 -70 -105 -75 -185 l-4 -68 13 52 c31
119 91 203 146 203 31 0 32 -2 27 -29 l-6 -29 42 24 c49 28 95 30 140 8 17 -9
89 -54 160 -100 70 -46 136 -84 145 -84 10 0 28 7 41 17 l24 16 -45 12 c-49
12 -297 157 -280 163 6 2 62 -11 125 -27 137 -37 220 -40 325 -10 73 20 74 20
112 1 38 -18 39 -18 29 -1 -13 26 -55 52 -82 51 -12 0 -53 -9 -91 -21 -107
-33 -197 -26 -316 26 l-45 20 94 2 c155 2 301 43 352 97 30 32 54 33 38 2 -6
-13 -23 -35 -37 -50 l-25 -28 34 10 c18 6 42 8 51 5 10 -3 28 -7 41 -11 l22
-5 -24 20 c-17 16 -19 21 -7 21 22 0 84 -57 106 -99 12 -23 19 -29 20 -18 0
33 -27 82 -64 115 -31 27 -34 32 -16 32 12 0 34 -7 50 -15 41 -21 38 0 -2 26
l-33 20 30 -7 c75 -17 89 -41 86 -148 -3 -91 -18 -137 -63 -183 -18 -18 -26
-33 -19 -33 25 0 98 84 110 125 15 55 14 108 -4 131 -25 33 -16 41 10 9 13
-16 24 -24 25 -17 0 8 -26 41 -58 74 -52 54 -63 60 -112 67 -71 10 -42 25 35
19 30 -3 52 -1 50 3 -3 4 -37 10 -75 14 -62 6 -69 9 -58 23 8 9 9 17 3 19 -5
2 -39 24 -75 49 -63 44 -51 53 18 13 36 -21 38 -19 18 19 -18 34 -54 68 -86
81 -22 8 -18 10 28 10 111 2 202 -84 173 -162 -7 -19 -7 -27 0 -27 27 0 49 24
64 69 15 47 15 51 -4 89 -36 70 -158 159 -253 182 l-47 12 19 39 c11 21 20 41
20 44 0 3 -66 -48 -147 -112 -144 -115 -326 -244 -390 -277 -92 -47 -183 4
-183 102 0 47 49 135 108 196 45 47 50 54 22 35 -50 -35 -119 -108 -141 -152
-11 -21 -29 -67 -40 -102 -30 -97 -76 -120 -130 -66 -36 36 -39 93 -9 160 26
55 25 59 -4 32 l-24 -22 -21 27 -21 27 0 -59 c0 -72 -14 -169 -29 -208 -11
-26 -14 -28 -27 -15 -13 14 -13 20 2 54 19 46 21 155 3 214 -14 49 -72 118
-120 145 l-34 19 41 -44 c63 -66 78 -103 79 -184 0 -86 -32 -161 -72 -171 -36
-9 -70 10 -218 121 -138 105 -263 189 -332 224 -49 25 -53 25 -53 8 0 -7 -20
-33 -45 -57 -49 -48 -49 -49 -35 59 12 89 41 143 105 196 l46 37 42 -18 c27
-12 104 -79 216 -189 96 -93 170 -163 166 -155 -11 20 -196 220 -307 334 l-88
89 0 59 c0 73 37 190 86 270 48 79 57 80 18 3 -42 -82 -60 -185 -45 -242 10
-35 24 -53 79 -97 37 -29 103 -84 147 -121 99 -83 132 -102 88 -52 -43 49
-216 293 -238 336 -26 51 -21 102 17 173 45 84 134 177 234 244 96 64 168 95
296 128 86 22 204 76 167 76 -39 0 -187 -33 -262 -59 -98 -34 -151 -58 -235
-106 -53 -30 -61 -32 -48 -14 22 32 95 81 173 117 115 52 235 82 377 92 71 5
131 11 133 13 2 2 0 12 -3 22 -7 16 -19 17 -138 12 -140 -6 -271 -35 -495
-112 -58 -19 -106 -33 -108 -31 -11 11 239 103 357 131 74 17 317 45 402 45
31 0 60 5 63 10 7 12 16 11 -160 19 l-140 6 118 19 c357 57 760 -67 937 -289
29 -36 54 -65 55 -63 4 4 -23 137 -31 149 -11 19 10 8 73 -37 84 -60 97 -89
91 -206 -8 -126 -41 -192 -162 -317 -119 -123 -126 -142 -96 -261 30 -116 39
-189 31 -236 l-7 -39 39 -3 40 -3 -7 73 c-4 40 -22 119 -41 175 -51 147 -51
146 53 255 97 103 132 156 156 238 23 77 22 210 -1 258 -44 91 -281 217 -564
301 l-106 31 -365 0 -365 0 -107 -30 c-312 -88 -548 -214 -757 -406 -41 -38
-135 -118 -207 -178 -162 -133 -213 -189 -262 -286 -43 -86 -124 -303 -150
-405 -18 -70 -18 -70 -19 -25 -1 70 17 222 39 327 31 147 71 214 220 364 271
272 577 476 900 599 84 31 98 39 70 39 -19 0 -71 -13 -115 -30z m19 -351 c-3
-7 -28 -31 -57 -53 -40 -31 -47 -34 -32 -14 15 20 82 77 92 79 1 0 0 -6 -3
-12z m-206 -135 c-51 -54 -104 -140 -127 -211 -24 -69 -51 -217 -51 -273 0
-28 -11 -56 -44 -106 -37 -58 -117 -248 -147 -348 -8 -27 -39 -259 -39 -293 0
-24 -17 -3 -23 28 -4 16 -27 74 -51 127 -51 112 -72 191 -82 313 -7 96 8 216
34 270 15 30 114 118 135 120 19 1 3 -40 -29 -71 -61 -58 -69 -81 -69 -204 0
-113 12 -166 68 -300 l21 -49 8 34 c5 19 12 114 16 212 l8 176 55 74 c77 101
79 106 27 69 -101 -72 -100 -71 -110 -247 -4 -87 -10 -159 -12 -161 -2 -3 -17
12 -32 33 -27 35 -29 43 -29 138 0 62 5 113 13 133 9 20 51 61 115 112 56 44
115 92 130 106 34 32 82 103 75 111 -3 3 -16 -11 -28 -30 -24 -39 -173 -153
-178 -136 -12 34 93 173 207 277 54 48 162 132 171 133 2 0 -12 -17 -32 -37z
m-610 -15 c-18 -24 -73 -88 -121 -142 -100 -113 -133 -163 -164 -256 -28 -80
-29 -61 -3 46 28 117 62 186 122 250 48 51 171 144 191 144 4 0 -7 -19 -25
-42z m222 -83 c-18 -26 -74 -91 -126 -144 -86 -90 -97 -106 -139 -205 -64
-150 -123 -330 -131 -402 l-6 -62 -57 -5 c-31 -2 -57 -3 -59 -2 -1 1 4 33 12
71 29 135 141 401 215 507 43 62 307 305 318 293 3 -3 -9 -26 -27 -51z m2740
-85 c0 -3 -10 -10 -22 -15 -12 -6 -33 -25 -45 -44 -13 -19 -23 -29 -23 -23 0
6 -14 27 -31 47 -38 43 -34 76 14 106 l32 20 37 -43 c21 -24 38 -45 38 -48z
m125 -170 c56 -85 155 -259 155 -272 0 -3 -18 0 -40 6 -33 8 -50 7 -89 -7 -27
-9 -51 -17 -54 -17 -2 0 -4 17 -3 38 1 40 -61 176 -121 265 -31 46 -32 50 -19
82 8 18 22 38 33 43 25 15 59 -19 138 -138z m129 -290 c14 -5 26 -14 26 -20 0
-6 -9 -6 -26 0 -31 12 -87 -1 -115 -26 -22 -20 -33 -15 -23 11 8 19 58 44 91
45 12 0 33 -4 47 -10z m8 -85 c10 -38 30 -186 26 -190 -2 -2 -28 5 -58 15
l-55 19 -7 77 c-9 91 4 117 56 112 23 -2 31 -9 38 -33z m-3352 -61 c-17 -61
-23 -49 -8 16 7 29 14 47 16 41 2 -7 -1 -33 -8 -57z m3557 -159 c3 -46 -1 -85
-11 -115 l-15 -45 6 40 c9 55 8 142 0 190 -6 33 -5 37 4 20 7 -10 14 -51 16
-90z m-3750 53 c-3 -7 -5 -2 -5 12 0 14 2 19 5 13 2 -7 2 -19 0 -25z m3507
-29 l39 -11 -6 -55 c-7 -63 -11 -71 -31 -53 -9 6 -34 17 -56 24 -46 13 -44 11
-35 66 8 45 19 48 89 29z m-3358 -32 c1 -1 4 -34 7 -73 l6 -71 -57 -17 c-31
-9 -62 -19 -68 -22 -12 -5 -28 134 -18 160 8 22 54 36 94 30 19 -3 36 -7 36
-7z m566 -31 c-35 -38 -62 -95 -62 -133 0 -6 12 -21 28 -32 l27 -20 -25 -1
c-23 -1 -24 -2 -7 -14 17 -13 15 -16 -24 -37 -23 -13 -49 -34 -57 -46 -19 -31
-12 -29 33 7 21 17 50 30 64 30 l26 0 -30 -18 c-16 -11 -36 -26 -44 -35 -12
-15 -11 -17 9 -17 20 0 20 -2 -8 -25 -47 -39 -75 -117 -76 -207 -1 -50 3 -81
12 -90 10 -10 14 -10 21 0 6 10 11 10 21 -3 7 -9 27 -25 44 -37 20 -13 13 -2
-21 32 -45 44 -53 57 -53 89 0 91 43 157 133 202 l40 21 23 -30 c49 -62 151
-76 329 -47 50 8 106 14 125 14 33 -1 30 -3 -44 -39 -44 -21 -106 -44 -138
-50 -71 -15 -220 -8 -270 13 -42 18 -81 64 -75 89 3 10 1 16 -4 12 -5 -3 -9
-12 -9 -20 0 -8 -13 -33 -30 -56 -39 -54 -38 -63 6 -33 29 20 39 22 60 13 18
-9 21 -14 13 -25 -9 -10 -2 -13 37 -13 l49 -1 -36 -19 c-19 -10 -42 -27 -50
-36 -13 -17 -13 -17 11 -1 29 20 69 21 156 5 61 -11 65 -10 156 25 103 40 168
55 168 39 0 -6 -36 -40 -80 -76 -126 -105 -199 -209 -200 -285 l0 -34 -53 50
c-29 28 -70 56 -91 63 -38 12 -144 9 -192 -5 -16 -5 -30 2 -57 30 -46 48 -62
93 -61 180 1 79 45 269 77 327 19 35 19 39 4 75 -21 52 -29 91 -18 97 5 3 14
-1 21 -9 15 -18 30 -10 30 16 0 24 71 96 102 102 13 2 25 5 27 6 2 0 -15 -19
-37 -43z m2884 -50 c-4 -31 -11 -58 -16 -61 -15 -9 -21 28 -14 87 6 53 8 58
22 45 11 -12 13 -28 8 -71z m-3607 52 c-6 -13 -32 -51 -56 -86 -54 -76 -97
-168 -112 -240 -23 -111 -6 -271 41 -381 10 -24 17 -46 15 -48 -6 -5 -64 129
-92 212 -18 54 -25 95 -25 153 0 71 4 87 35 148 36 73 178 264 196 264 6 0 5
-8 -2 -22z m789 -38 c-32 -32 -58 -66 -58 -75 0 -8 -4 -15 -10 -15 -15 0 -12
47 5 79 16 33 70 71 100 71 17 0 9 -12 -37 -60z m1702 -42 c29 -18 60 -43 68
-56 14 -21 11 -20 -35 8 -57 36 -185 62 -204 43 -8 -8 1 -13 30 -18 47 -8 95
-38 124 -77 17 -23 19 -32 9 -52 -24 -54 -161 -93 -281 -80 -36 3 -70 9 -76
12 -5 3 -26 6 -45 5 l-35 -1 35 6 c23 5 31 10 23 15 -7 5 -13 24 -13 43 0 46
62 113 143 154 50 25 72 30 132 30 62 0 77 -4 125 -32z m-1528 7 c-67 -15
-152 -58 -152 -77 0 -6 -3 -8 -7 -5 -10 10 47 67 82 83 17 7 55 13 85 13 l55
-1 -63 -13z m2513 -4 c40 -19 123 -96 114 -106 -3 -2 -21 7 -40 21 -19 14 -49
32 -67 40 -28 13 -36 12 -62 -1 -41 -21 -89 -95 -120 -186 -19 -53 -31 -74
-37 -68 -6 6 -21 9 -34 7 -19 -2 -24 -9 -24 -33 0 -24 5 -31 23 -33 14 -2 30
4 38 15 13 16 14 13 7 -32 -9 -66 -9 -217 1 -280 4 -27 5 -47 2 -44 -3 3 -9
29 -13 59 l-8 54 -55 22 -55 22 -7 -21 c-14 -40 3 187 18 253 21 93 79 204
142 272 49 53 58 58 96 58 22 0 59 -9 81 -19z m-3143 -28 c-33 -43 -102 -207
-127 -304 -10 -37 -17 -106 -18 -162 -1 -72 -4 -95 -11 -84 -6 8 -20 17 -32
21 -28 9 -47 85 -38 159 9 79 22 62 18 -25 l-3 -73 10 75 c6 41 14 77 18 80
13 9 19 36 11 50 -14 22 45 170 92 229 24 31 78 71 96 71 9 0 3 -13 -16 -37z
m-117 -30 c-18 -32 -46 -94 -61 -138 -15 -44 -31 -82 -34 -85 -35 -27 -51
-201 -30 -341 17 -117 45 -186 97 -239 l44 -44 -15 -56 c-19 -66 -95 -269 -95
-255 -1 18 38 223 53 279 l14 54 -29 28 c-66 63 -96 169 -106 369 -6 138 8
216 60 324 28 56 112 161 130 161 3 0 -9 -26 -28 -57z m3055 20 c-97 -126
-138 -229 -159 -402 -6 -46 -13 -86 -15 -88 -2 -3 -16 3 -30 12 -24 16 -26 23
-26 85 0 75 28 198 60 260 30 59 89 120 135 141 54 25 60 24 35 -8z m-2121
-17 c74 -38 98 -85 71 -137 -9 -16 -7 -19 12 -20 49 -3 -132 -28 -205 -28 -81
-1 -129 14 -141 44 -23 62 21 143 90 165 44 14 117 4 173 -24z m2360 -22 l30
-25 -33 -29 c-40 -35 -87 -121 -115 -210 -17 -54 -41 -199 -41 -248 0 -9 -10
-12 -27 -10 -22 2 -29 9 -33 33 -8 48 8 232 25 293 32 111 107 222 150 222 7
0 27 -12 44 -26z m-3105 -17 l20 -27 -37 -69 c-51 -94 -79 -223 -79 -366 -1
-60 2 -126 6 -145 7 -34 6 -34 -10 -15 -46 56 -58 105 -62 252 -5 179 18 268
95 371 28 37 38 37 67 -1z m1331 10 c30 10 37 9 45 -7 14 -26 -14 -45 -67 -45
-35 0 -49 5 -64 24 -27 34 -24 41 16 28 25 -7 45 -7 70 0z m-1800 -62 c-8 -26
-15 -64 -15 -84 0 -27 -3 -32 -10 -21 -16 25 -11 80 12 121 12 21 23 37 24 36
2 -2 -3 -25 -11 -52z m172 23 c-37 -85 -60 -147 -69 -195 -6 -32 -14 -60 -18
-63 -22 -17 -32 -77 -28 -163 7 -118 -6 -74 -22 80 -12 104 -11 127 3 191 20
86 38 117 86 142 43 23 55 25 48 8z m1236 -28 c10 0 15 -4 12 -10 -9 -15 -36
-12 -57 7 -25 23 -23 37 4 19 12 -9 31 -16 41 -16z m649 0 c-30 -28 -72 -40
-72 -22 0 8 76 48 95 50 6 1 -5 -12 -23 -28z m1641 -7 c14 -9 6 -23 -41 -70
-58 -58 -91 -138 -99 -238 -5 -67 -15 -95 -34 -95 -14 0 -10 57 10 156 19 93
45 154 88 213 23 30 24 32 5 22 -48 -25 -121 -228 -122 -334 0 -46 -15 -77
-37 -77 -14 0 -15 10 -10 73 10 135 57 270 117 336 28 30 34 32 73 26 23 -4
45 -9 50 -12z m-3166 -38 c8 -37 7 -51 -8 -85 -19 -42 -28 -47 -47 -28 -18 18
-15 39 10 65 26 28 16 44 -11 19 -31 -29 -37 -73 -13 -106 19 -25 20 -34 12
-91 -5 -35 -10 -83 -10 -107 0 -35 -4 -44 -25 -54 -14 -6 -28 -8 -33 -4 -14
14 -3 163 18 252 13 58 32 105 53 136 18 27 35 48 38 48 3 0 10 -20 16 -45z
m338 6 c16 -52 128 -84 287 -82 65 0 118 -1 118 -3 0 -10 -182 -46 -231 -46
-111 0 -184 42 -196 113 -6 39 11 53 22 18z m-1417 -121 c-13 -143 -4 -285 27
-405 14 -54 22 -102 17 -107 -4 -4 -8 3 -8 15 -1 12 -18 67 -38 122 -45 127
-59 222 -46 314 5 38 14 80 20 95 5 14 15 38 20 52 6 15 12 25 14 23 2 -2 -1
-51 -6 -109z m762 0 c0 -5 -7 -10 -15 -10 -8 0 -15 5 -15 10 0 6 7 10 15 10 8
0 15 -4 15 -10z m3098 -12 c-6 -18 -28 -21 -28 -4 0 9 7 16 16 16 9 0 14 -5
12 -12z m-2053 -278 c-17 -53 41 -160 88 -160 19 0 19 1 3 19 -18 19 -17 19
28 6 60 -18 65 -22 60 -43 -4 -13 17 -29 88 -67 122 -66 125 -81 16 -77 -131
6 -214 -19 -321 -94 -26 -19 -50 -34 -53 -34 -4 0 -4 34 -2 75 4 57 12 90 36
137 l31 63 -39 -44 c-22 -23 -52 -68 -67 -100 l-28 -56 -3 89 c-2 79 0 95 23
141 23 47 123 165 140 165 3 0 4 -9 0 -20z m1952 -42 c-2 -13 -4 -5 -4 17 -1
22 1 32 4 23 2 -10 2 -28 0 -40z m369 -23 c11 -37 14 -59 7 -66 -23 -23 -60
71 -40 102 6 10 13 19 13 19 1 0 10 -25 20 -55z m42 -36 c-2 -20 -5 -18 -15
15 -11 36 -11 38 3 24 9 -8 14 -26 12 -39z m-401 9 c-3 -8 -6 -5 -6 6 -1 11 2
17 5 13 3 -3 4 -12 1 -19z m209 -40 c11 -45 11 -47 -17 -74 l-28 -27 -11 28
c-12 32 -14 46 -12 93 2 30 5 33 29 30 23 -3 29 -10 39 -50z m-186 -13 c0 -5
-5 -3 -10 5 -5 8 -10 20 -10 25 0 6 5 3 10 -5 5 -8 10 -19 10 -25z m-2619
-143 c7 -21 46 -72 94 -123 143 -150 177 -254 181 -552 l3 -199 61 -104 c62
-106 118 -239 145 -341 26 -98 66 -192 109 -256 68 -101 198 -183 229 -145 6
8 33 30 59 47 27 18 48 33 48 34 0 1 9 26 20 55 11 28 18 52 16 52 -2 0 -16
-19 -31 -42 -32 -48 -69 -84 -107 -104 -25 -13 -32 -12 -75 8 -57 27 -109 78
-142 138 -27 51 -25 50 16 -1 15 -20 54 -56 85 -82 l56 -46 -9 32 c-5 18 -9
45 -9 61 0 16 -3 27 -6 24 -15 -16 -96 27 -133 69 -82 92 -111 241 -111 573 0
112 -7 253 -16 330 -17 148 -75 466 -99 545 -17 58 -19 79 -5 70 12 -7 84
-234 104 -330 36 -166 71 -495 91 -840 11 -185 15 -188 188 -146 236 57 354
63 542 26 117 -23 261 -30 314 -15 51 14 96 56 122 116 20 45 32 114 78 445
33 234 80 482 108 569 l18 55 3 -44 c3 -46 -10 -144 -58 -426 -16 -93 -41
-254 -55 -356 -34 -247 -58 -321 -122 -381 -56 -53 -99 -57 -348 -33 -189 18
-263 11 -530 -54 l-200 -48 72 -22 c51 -15 79 -30 97 -51 13 -17 27 -26 30
-21 4 5 43 22 89 38 71 24 97 28 197 28 141 0 188 -18 240 -93 18 -26 35 -49
36 -51 7 -9 164 63 195 89 34 30 34 30 6 20 -45 -16 -84 -12 -135 14 -62 31
-202 74 -277 85 -52 7 -55 9 -20 10 23 0 95 -6 160 -15 275 -36 390 6 466 171
41 88 166 501 184 608 42 244 56 309 81 376 15 39 28 70 30 68 2 -1 -4 -27
-12 -57 -8 -30 -19 -129 -23 -220 -9 -165 -45 -371 -86 -495 -30 -90 -95 -227
-188 -395 -49 -91 -106 -193 -124 -228 -44 -80 -81 -122 -144 -162 -27 -18
-48 -35 -45 -38 8 -7 97 53 133 90 32 33 107 157 217 359 32 59 75 123 95 143
21 21 112 90 202 155 90 65 174 132 185 149 16 23 23 54 28 119 4 48 9 107 13
131 4 34 2 42 -10 42 -11 0 -18 -14 -22 -47 -14 -109 -35 -205 -51 -238 -19
-41 -30 -41 -14 -1 5 15 17 82 25 149 9 67 18 130 21 139 5 18 50 35 61 24 13
-13 -23 -303 -40 -330 -17 -26 -191 -177 -342 -298 -63 -50 -88 -78 -119 -133
-21 -39 -54 -93 -72 -121 -34 -54 -104 -188 -104 -201 0 -4 17 22 38 57 20 36
70 97 109 136 53 52 81 89 102 137 30 66 53 96 44 55 -16 -71 -53 -189 -66
-214 -20 -38 -250 -285 -308 -331 -94 -75 -172 -100 -334 -109 l-110 -7 -65
45 c-81 55 -92 76 -86 153 l4 60 -18 -35 c-32 -63 -33 -101 -5 -154 l25 -48
-42 7 c-83 14 -195 55 -254 94 -135 88 -205 210 -237 412 -15 96 -16 98 -130
285 -63 104 -133 218 -156 254 -73 112 -101 184 -132 332 -16 78 -28 143 -26
145 3 2 12 -9 22 -24 10 -15 40 -53 67 -85 42 -49 54 -73 95 -199 25 -79 48
-138 50 -132 5 14 -39 258 -67 380 -33 141 -81 215 -192 297 -36 25 -38 30
-38 81 0 49 -4 58 -45 106 -25 29 -45 57 -45 62 0 4 27 -15 60 -43 38 -33 64
-65 71 -88z m2659 76 c15 -21 17 -28 6 -19 -16 13 -41 51 -33 51 2 0 14 -15
27 -32z m-3306 -12 c-3 -8 -2 -22 3 -30 7 -12 -9 -34 -63 -89 -50 -51 -77 -89
-93 -127 -16 -42 -20 -47 -15 -20 9 49 65 154 120 223 47 58 58 68 48 43z
m3194 -8 c14 0 22 -6 22 -17 0 -18 -38 -223 -42 -226 -2 -1 -52 -37 -113 -80
-132 -92 -161 -119 -185 -165 -23 -44 -44 -150 -60 -297 -12 -111 -13 -112
-54 -155 -22 -24 -74 -79 -114 -122 l-73 -79 21 54 c31 81 66 218 95 369 45
238 65 306 104 368 40 61 107 126 178 170 35 22 47 39 69 95 15 37 29 66 31
64 8 -8 -17 -139 -29 -154 -7 -9 -47 -42 -90 -74 -83 -63 -111 -94 -59 -63 56
33 165 123 187 155 12 17 25 51 29 77 12 87 15 94 39 87 11 -4 31 -7 44 -7z
m-3051 -41 l21 -28 -23 -42 c-37 -67 -48 -148 -42 -324 6 -216 30 -302 158
-571 55 -115 134 -255 179 -312 10 -14 -9 31 -43 100 -36 73 -90 209 -130 325
-76 226 -80 261 -47 390 26 100 53 155 103 202 l39 38 -6 -91 -7 -91 36 -27
c43 -33 59 -64 75 -141 6 -33 14 -69 17 -79 5 -17 1 -16 -26 7 -41 34 -56 34
-78 0 -15 -22 -18 -46 -16 -125 4 -224 101 -451 278 -648 35 -39 69 -88 76
-108 7 -20 27 -74 46 -120 41 -102 41 -114 3 -77 -17 16 -43 62 -60 104 -36
93 -37 86 -6 -27 29 -102 51 -156 78 -195 16 -23 2 -16 -73 35 -107 72 -314
268 -431 408 -188 225 -226 325 -248 650 -7 91 -15 197 -19 235 l-7 70 -22
-57 c-56 -147 -52 -306 14 -506 68 -209 165 -360 392 -612 270 -302 298 -339
181 -243 -179 146 -423 452 -529 664 -51 101 -96 233 -111 329 -7 41 -15 80
-19 85 -4 6 -7 129 -6 275 l1 265 28 60 c19 41 53 86 110 142 45 46 84 79 87
75 4 -4 16 -19 27 -35z m2378 -39 c-27 -32 -45 -71 -71 -153 -19 -60 -38 -116
-43 -123 -6 -11 -21 -7 -67 17 -32 17 -104 43 -159 58 -96 25 -113 27 -410 31
-345 4 -375 1 -493 -55 -75 -36 -106 -37 -62 -2 41 31 181 96 240 110 39 9
113 13 250 11 280 -4 462 -36 604 -108 53 -27 71 -32 77 -23 4 7 22 52 39 100
30 83 95 179 122 179 5 0 -7 -19 -27 -42z m-2057 5 c-24 -6 -23 -20 7 -84 46
-101 64 -201 89 -477 13 -150 8 -166 -27 -99 -19 37 -28 92 -62 364 -9 73 -25
167 -35 210 -19 82 -16 94 25 92 17 -1 17 -2 3 -6z m2839 -97 c-25 -110 -69
-343 -82 -436 -18 -132 -29 -151 -105 -197 -66 -40 -80 -35 -80 27 0 44 3 51
39 79 46 36 54 59 76 196 13 81 71 329 90 383 9 24 68 -26 62 -52z m-1830 28
c-3 -3 -12 -4 -19 -1 -8 3 -5 6 6 6 11 1 17 -2 13 -5z m-60 -10 c-3 -3 -12 -4
-19 -1 -8 3 -5 6 6 6 11 1 17 -2 13 -5z m-487 -96 c70 -74 132 -289 145 -499
l5 -94 -39 165 c-61 259 -90 361 -116 407 -27 48 -25 53 5 21z m750 -46 c18
-14 24 -32 28 -75 l4 -57 -81 0 -82 0 7 48 c11 75 29 102 68 102 19 0 44 -8
56 -18z m-150 -11 c12 -24 13 -151 1 -170 -23 -36 -57 55 -47 127 9 66 25 81
46 43z m-936 -55 c14 -44 13 -48 0 -34 -9 8 -17 35 -20 59 -5 50 0 45 20 -25z
m872 5 c-3 -9 -10 -38 -17 -66 -16 -67 -25 -74 -39 -30 -14 43 -8 118 11 141
12 15 15 14 31 -6 10 -13 16 -30 14 -39z m350 24 c7 -19 14 -48 14 -65 0 -30
-1 -30 -51 -30 l-52 0 6 51 c7 57 20 79 49 79 12 0 24 -12 34 -35z m100 10 c9
-13 18 -43 21 -65 l6 -41 -49 3 c-43 3 -49 6 -52 28 -2 13 1 41 7 62 14 45 42
51 67 13z m111 -52 c4 -46 -12 -94 -31 -97 -10 -1 -35 86 -36 126 0 34 29 53
49 33 8 -7 16 -35 18 -62z m-1088 -5 c24 -74 131 -613 131 -661 0 -26 -6 -17
-36 53 -60 145 -64 160 -75 284 -10 117 -34 317 -44 364 -10 44 4 21 24 -40z
m429 25 c11 -23 3 -183 -10 -183 -16 0 -38 67 -38 115 0 70 28 109 48 68z
m748 -28 c11 -45 -31 -173 -50 -154 -10 9 -11 172 -3 187 12 18 45 -3 53 -33z
m-1332 -98 c13 -25 6 -20 -34 23 -77 83 -103 124 -39 62 30 -28 63 -67 73 -85z
m1414 98 c23 -50 6 -131 -35 -177 -25 -28 -30 -22 -23 34 4 29 5 72 2 95 -7
66 33 100 56 48z m915 -62 c-2 -95 -24 -182 -53 -208 l-21 -19 7 127 c6 100 4
130 -7 143 -11 14 -10 18 6 31 11 7 31 13 45 11 25 -3 25 -4 23 -85z m-1813
-11 c-1 -76 -1 -77 -15 -43 -16 35 -19 88 -9 115 13 34 24 1 24 -72z m964 40
c11 -39 -12 -139 -25 -106 -13 34 -11 146 3 142 7 -3 17 -19 22 -36z m-997
-112 c-3 -10 -8 -5 -15 13 -13 32 -16 100 -4 111 8 8 24 -100 19 -124z m1047
114 c11 -30 6 -67 -15 -101 -12 -19 -22 -33 -24 -31 -1 2 0 36 3 76 3 49 8 72
17 72 7 0 16 -7 19 -16z m72 -92 c-4 -30 -63 -109 -72 -99 -2 2 3 25 11 52 8
26 15 69 15 94 l1 46 25 -29 c21 -24 25 -36 20 -64z m-1739 24 c0 -1 15 -68
33 -150 17 -81 44 -190 59 -241 l28 -93 -56 30 c-101 56 -94 33 -125 410 l-7
77 33 -16 c18 -9 34 -17 35 -17z m1278 15 c-6 -5 -87 -5 -185 -1 l-175 7 185
1 c106 1 180 -2 175 -7z m-189 -237 c42 -20 68 -55 84 -113 l12 -44 25 44 c48
86 96 119 173 119 62 0 107 -23 127 -65 17 -36 17 -38 -3 -73 -30 -50 -71 -69
-172 -77 -76 -7 -351 8 -408 22 -32 7 -47 47 -34 91 26 94 112 136 196 96z
m-431 -114 c-8 -30 -15 -82 -15 -115 -1 -48 -3 -56 -12 -41 -15 26 -4 133 18
178 9 21 19 36 20 35 2 -2 -3 -27 -11 -57z m130 -13 c0 -28 -10 -55 -25 -78
l-25 -34 -3 53 c-2 37 2 62 13 78 25 38 42 30 40 -19z m910 22 c11 -17 0 -20
-21 -4 -17 13 -17 14 -2 15 9 0 20 -5 23 -11z m-17 -32 c8 -9 8 -33 2 -76 -10
-73 -20 -91 -20 -37 0 21 -7 50 -16 66 -26 43 4 84 34 47z m-1901 -74 c-3 -10
-5 -2 -5 17 0 19 2 27 5 18 2 -10 2 -26 0 -35z m1853 18 c18 -35 11 -45 -15
-21 -13 12 -22 27 -19 31 9 15 23 10 34 -10z m-814 -22 c-3 -17 -6 -53 -6 -80
0 -42 -3 -49 -19 -49 -27 0 -44 54 -31 99 11 40 27 61 47 61 12 0 14 -7 9 -31z
m790 -14 c12 -18 14 -31 7 -52 -14 -40 -25 -38 -50 9 -18 31 -20 44 -12 54 17
21 37 17 55 -11z m-1768 -180 c11 -27 48 -99 82 -160 129 -226 134 -239 38
-100 -31 44 -72 112 -92 152 -37 75 -87 229 -85 267 0 11 9 -8 19 -44 9 -36
26 -87 38 -115z m41 57 c12 -29 17 -51 12 -47 -11 6 -48 100 -56 142 -6 30 -8
34 44 -95z m193 26 c35 -40 110 -122 168 -183 90 -94 110 -121 136 -185 17
-41 34 -88 38 -104 l7 -28 -44 36 c-24 19 -90 64 -147 98 l-104 63 -47 96
c-47 96 -109 257 -109 285 0 25 34 -1 102 -78z m861 84 c3 -4 -2 -30 -11 -57
-14 -42 -21 -51 -44 -53 -23 -3 -28 2 -37 35 -6 21 -11 48 -11 61 0 20 5 22
49 22 28 0 52 -3 54 -8z m804 -44 c-12 -118 -23 -161 -39 -152 -6 4 -8 31 -3
73 10 108 16 131 32 131 13 0 14 -10 10 -52z m-689 33 c8 -5 12 -23 10 -47
l-3 -39 -52 -3 -53 -3 0 45 c0 26 5 46 13 49 20 9 71 7 85 -2z m466 -1 c22 -8
26 -16 26 -50 0 -36 -3 -40 -24 -40 -42 0 -88 80 -53 93 19 8 24 8 51 -3z
m-362 -24 c4 -6 8 -26 8 -43 0 -31 -2 -33 -33 -33 -18 0 -38 5 -45 12 -12 12
-17 70 -7 80 8 8 70 -4 77 -16z m282 8 c10 -26 7 -59 -8 -79 -14 -19 -15 -19
-35 -1 -15 14 -30 17 -56 13 l-35 -6 0 39 0 39 53 4 c28 2 57 4 63 5 7 1 15
-5 18 -14z m-748 -54 c-9 -22 -16 -54 -16 -70 0 -16 -5 -32 -11 -36 -17 -10
-7 129 10 150 25 30 36 2 17 -44z m594 15 l0 -45 -44 0 c-46 0 -56 11 -56 68
0 20 5 22 50 22 l50 0 0 -45z m389 -27 c-1 -41 -1 -42 -11 -15 -5 15 -7 34 -4
42 10 27 16 16 15 -27z m-955 -50 c-8 -82 -24 -99 -24 -26 0 60 7 88 21 88 5
0 6 -28 3 -62z m926 31 c14 -26 5 -87 -19 -118 -18 -23 -18 -23 -24 49 -3 41
-4 77 -1 82 9 15 33 8 44 -13z m-885 -48 c-9 -64 -15 -82 -26 -76 -12 8 -12
77 1 110 16 42 33 20 25 -34z m75 0 c0 -49 -8 -71 -26 -71 -33 0 -46 82 -16
99 32 19 42 13 42 -28z m748 8 c3 -27 -15 -85 -24 -76 -14 14 -22 82 -12 94
16 19 33 11 36 -18z m857 21 c-6 -10 -269 -226 -295 -243 -44 -28 128 128 205
186 92 69 101 74 90 57z m-1506 -16 c1 -1 -1 -15 -6 -31 -14 -42 -40 -41 -58
1 -8 19 -15 37 -15 40 0 5 72 -4 79 -10z m531 -16 c0 -30 -22 -98 -31 -98 -11
0 -29 34 -29 55 0 21 41 76 52 69 4 -3 8 -15 8 -26z m58 -27 c3 -54 -9 -84
-27 -65 -5 5 -11 35 -13 67 -4 54 -3 58 16 55 18 -3 21 -11 24 -57z m-478 25
c0 -54 -56 -60 -77 -8 l-13 32 45 0 c41 0 45 -2 45 -24z m98 -8 c-4 -40 -28
-48 -57 -19 -34 34 -27 51 20 51 39 0 40 -1 37 -32z m80 2 c-18 -52 -40 -51
-53 3 -7 26 -5 27 28 27 36 0 36 0 25 -30z m102 24 c0 -3 -7 -21 -16 -40 -22
-46 -48 -42 -52 9 -3 36 -3 37 32 37 20 0 36 -3 36 -6z m66 -7 c6 -18 -18 -90
-33 -94 -15 -5 -26 47 -17 81 7 28 41 37 50 13z m291 -19 c-3 -8 -6 -5 -6 6
-1 11 2 17 5 13 3 -3 4 -12 1 -19z m-357 -99 c188 -37 322 -43 363 -16 27 18
28 18 15 -3 -7 -11 -29 -28 -48 -37 -31 -15 -48 -15 -151 -5 -64 7 -165 22
-225 34 -155 31 -300 30 -464 -5 -170 -37 -187 -36 -206 8 -17 41 -18 69 -2
40 25 -43 57 -45 224 -11 66 14 133 27 149 29 59 10 192 -3 345 -34z m934 -81
c-66 -68 -135 -141 -153 -163 -32 -38 -32 -39 -13 -6 40 69 99 135 187 212 49
44 91 79 94 79 3 0 -49 -55 -115 -122z m-1746 -1026 c22 -31 47 -73 56 -92 9
-19 11 -27 4 -16 -15 21 -144 195 -183 246 -15 19 -2 9 29 -23 30 -32 73 -83
94 -115z"/>
<path d="M1261 3817 c-3 -66 61 -287 82 -287 3 0 -8 42 -24 93 -15 50 -34 121
-42 157 -9 39 -15 54 -16 37z"/>
<path d="M4112 4350 c-32 -30 -27 -34 8 -8 17 12 30 23 30 25 0 9 -19 1 -38
-17z"/>
<path d="M3036 3469 c-36 -28 -36 -80 0 -108 15 -12 34 -21 44 -21 34 0 70 39
70 75 0 36 -36 75 -70 75 -10 0 -29 -9 -44 -21z m62 -26 c-4 -22 -58 -31 -58
-10 0 20 10 27 37 27 18 0 24 -5 21 -17z"/>
<path d="M1857 3462 c-22 -25 -21 -75 1 -95 25 -23 68 -21 92 3 27 27 25 56
-5 85 -29 30 -65 32 -88 7z m52 -16 c10 -12 8 -17 -9 -26 -29 -15 -49 2 -30
25 16 19 24 19 39 1z"/>
<path d="M2092 1175 c4 -5 27 -17 50 -27 24 -11 39 -15 33 -9 -5 5 -28 17 -50
27 -22 9 -37 13 -33 9z"/>
<path d="M2701 1024 c0 -11 3 -14 6 -6 3 7 2 16 -1 19 -3 4 -6 -2 -5 -13z"/>
<path d="M2910 1014 c-38 -27 -174 -104 -184 -104 -3 0 -6 20 -6 45 0 64 -15
56 -18 -10 -2 -31 1 -55 7 -55 35 0 216 107 236 140 9 14 4 12 -35 -16z"/>
<path d="M3725 2396 c-130 -100 -144 -120 -164 -224 -6 -29 -11 -67 -10 -85 0
-18 9 8 19 58 10 50 24 103 31 118 7 15 62 65 124 112 62 46 118 91 125 100
29 35 -12 9 -125 -79z"/>
<path d="M3541 2034 c0 -11 3 -14 6 -6 3 7 2 16 -1 19 -3 4 -6 -2 -5 -13z"/>
<path d="M747 2427 c-55 -83 -66 -135 -16 -77 26 30 75 137 67 146 -2 1 -25
-29 -51 -69z"/>
<path d="M3806 2268 c-13 -134 -15 -182 -6 -167 10 17 26 219 17 219 -3 0 -8
-24 -11 -52z"/>
<path d="M3860 5102 c118 -82 252 -211 317 -308 63 -92 138 -289 193 -503 24
-94 46 -142 98 -216 68 -96 63 -74 -9 40 -49 78 -69 156 -69 270 0 49 -5 132
-10 184 -12 112 -44 180 -123 263 -106 110 -352 288 -396 287 l-26 0 25 -17z"/>
<path d="M4036 5112 c5 -5 42 -30 82 -57 109 -71 201 -166 244 -253 47 -92 64
-175 83 -387 16 -180 31 -228 90 -300 l25 -30 -19 55 c-20 57 -67 272 -97 440
-30 173 -82 277 -190 382 -59 56 -199 158 -218 158 -6 0 -6 -3 0 -8z"/>
<path d="M4186 5111 c5 -5 38 -32 74 -61 36 -28 104 -87 153 -131 48 -44 87
-78 87 -74 0 20 -45 87 -87 126 -58 56 -195 149 -220 149 -10 0 -13 -3 -7 -9z"/>
<path d="M4516 5068 c93 -140 160 -320 171 -463 4 -58 12 -91 29 -121 13 -22
24 -55 24 -73 0 -27 -7 -36 -55 -66 -59 -38 -63 -45 -40 -89 19 -36 19 -45 0
-67 -15 -15 -13 -24 19 -100 126 -307 135 -506 36 -810 -16 -52 -34 -101 -40
-109 -19 -30 -10 54 15 135 34 108 30 117 -8 20 -18 -44 -36 -85 -40 -92 -10
-16 2 -93 19 -120 18 -28 18 -84 -1 -152 l-14 -53 65 -75 c108 -123 149 -238
124 -347 -13 -59 -70 -209 -77 -203 -2 3 5 54 17 114 28 138 24 220 -15 298
-28 55 -128 175 -138 165 -2 -3 -18 -32 -34 -65 l-30 -59 31 -71 c30 -69 31
-73 30 -220 -2 -319 -67 -501 -245 -690 -120 -128 -130 -152 -126 -315 2 -110
1 -117 -26 -162 -29 -49 -60 -77 -139 -122 l-48 -28 35 57 c54 90 99 240 130
435 10 58 22 111 27 118 6 7 37 26 69 43 31 17 82 54 112 82 63 60 85 110 117
266 21 102 27 261 11 261 -5 0 -19 -15 -30 -34 -22 -35 -126 -137 -182 -178
-41 -30 -72 -86 -99 -178 -19 -68 -28 -81 -84 -135 -35 -33 -68 -69 -74 -81
-6 -11 -16 -61 -22 -110 -14 -112 -53 -291 -85 -385 -33 -95 -65 -149 -119
-196 -46 -40 -58 -47 -300 -184 -220 -125 -252 -167 -282 -378 -8 -57 -16
-107 -19 -111 -2 -4 -27 -10 -53 -14 -32 -4 -70 -20 -109 -45 -71 -46 -241
-192 -338 -290 l-69 -71 200 0 201 0 101 114 c110 124 280 286 407 389 109 88
142 125 218 242 68 104 102 141 227 243 122 99 220 223 259 327 12 32 25 100
30 158 12 134 29 173 101 236 32 28 84 86 116 128 32 43 86 110 119 148 86 99
153 186 222 290 115 171 153 270 153 395 0 64 -5 86 -26 125 -40 77 -118 185
-189 263 -102 114 -99 101 -64 217 16 54 39 144 50 200 l20 100 74 75 c111
114 118 137 100 312 -5 51 -4 92 4 123 13 54 50 135 60 135 10 0 49 -112 65
-190 14 -63 14 -58 15 165 1 260 9 250 -84 120 -79 -110 -116 -192 -123 -270
-4 -55 -1 -69 20 -107 35 -61 40 -88 23 -144 -15 -48 -96 -153 -134 -174 -16
-8 -18 -4 -13 39 10 109 -34 318 -105 499 -24 61 -41 117 -38 122 4 6 23 17
43 26 51 21 87 58 114 118 20 44 23 67 23 171 0 99 -4 131 -23 187 -46 132
-140 247 -250 306 -87 47 -98 43 -56 -20z m240 -2001 c132 -140 224 -287 224
-353 l-1 -39 -18 47 c-25 63 -93 163 -195 286 -47 57 -86 108 -86 113 0 20 21
6 76 -54z m-88 -632 c0 -27 -4 -63 -8 -80 -5 -19 -8 15 -8 90 0 89 2 110 9 80
4 -22 8 -62 7 -90z m228 -19 c-43 -94 -124 -229 -166 -276 l-31 -35 20 41 c11
23 44 81 74 130 29 49 71 119 92 156 21 37 40 66 42 64 2 -2 -12 -38 -31 -80z
m-411 -347 c-32 -123 -87 -196 -203 -267 -93 -58 -89 -50 -141 -262 -61 -247
-87 -305 -183 -396 -40 -38 -89 -80 -108 -94 -19 -14 9 18 62 70 76 74 104
110 128 162 38 82 76 240 88 375 8 79 17 117 40 165 16 35 44 106 63 158 36
102 32 96 204 254 l60 55 3 -79 c2 -49 -3 -102 -13 -141z m-772 -1231 c-45
-165 -51 -173 -240 -322 l-82 -65 20 52 c33 83 85 170 136 227 26 29 38 48 27
42 -36 -19 -143 -141 -169 -192 -27 -54 -41 -67 -24 -23 24 64 77 150 123 201
42 46 207 170 228 171 4 1 -5 -40 -19 -91z m-357 -355 c-8 -15 -15 -25 -16
-21 0 12 23 58 27 54 3 -2 -2 -17 -11 -33z m-251 -241 c-38 -34 -137 -112
-142 -112 -8 0 83 80 116 102 27 19 42 24 26 10z"/>
<path d="M3095 5016 c149 -57 270 -136 315 -203 73 -111 45 -269 -76 -429 -33
-44 -92 -122 -130 -174 -39 -52 -95 -122 -125 -155 -30 -33 -45 -53 -34 -45
86 65 163 135 307 282 185 188 188 194 188 329 0 106 -16 147 -85 216 -49 49
-84 72 -176 116 -99 48 -209 88 -236 87 -4 -1 19 -11 52 -24z"/>
<path d="M3066 4962 c118 -66 174 -119 174 -161 0 -38 -21 -33 -73 17 -56 52
-106 86 -172 115 l-40 18 35 -28 c56 -44 116 -112 147 -167 24 -44 28 -62 28
-131 0 -95 -22 -151 -103 -257 -28 -38 -47 -68 -43 -68 15 0 173 69 225 98 27
15 53 34 57 42 4 8 18 81 30 161 19 126 21 151 9 178 -19 46 -93 107 -190 156
-101 50 -157 69 -84 27z"/>
<path d="M161 4895 c-36 -26 -86 -68 -113 -93 l-48 -45 0 -175 0 -175 48 44
c26 25 80 71 120 103 39 32 72 64 72 70 0 7 -11 23 -25 36 -31 29 -32 56 -4
162 31 124 27 130 -50 73z"/>
<path d="M2300 4767 c-96 -42 -161 -86 -230 -158 -67 -69 -106 -143 -119 -228
-12 -76 -9 -82 63 -118 86 -43 113 -68 121 -112 5 -33 15 -44 61 -76 72 -50
140 -126 193 -215 24 -39 46 -68 50 -63 4 4 22 27 40 50 50 65 144 130 286
198 72 34 135 68 141 76 9 11 42 136 59 224 l4 20 -15 -20 c-8 -11 -36 -57
-60 -103 -50 -91 -61 -99 -273 -207 -51 -27 -115 -65 -141 -86 l-49 -38 -24
42 c-39 65 -79 112 -145 168 -51 43 -64 60 -76 103 -8 28 -35 82 -60 119 -25
38 -48 78 -52 89 -25 79 81 215 255 327 77 49 70 51 -29 8z"/>
<path d="M3286 4085 c-169 -93 -421 -295 -455 -365 -12 -24 -11 -24 9 2 42 54
323 266 466 351 52 31 96 67 83 67 -2 0 -49 -25 -103 -55z"/>
<path d="M3797 3805 c-67 -56 -91 -83 -39 -47 36 26 119 101 111 102 -3 0 -35
-25 -72 -55z"/>
<path d="M4992 3627 c-130 -133 -162 -187 -162 -283 0 -74 23 -122 120 -254
39 -52 92 -128 117 -168 25 -40 48 -71 50 -68 8 7 -27 67 -123 208 -109 162
-138 230 -131 305 3 28 14 71 25 95 20 46 114 154 166 190 l31 22 -36 -40
c-117 -132 -163 -269 -125 -375 7 -20 35 -70 62 -112 27 -43 68 -110 92 -149
l42 -73 0 96 c0 90 -2 97 -26 120 -34 32 -84 108 -84 129 0 8 25 40 55 70 l55
54 0 173 c0 95 -4 173 -8 173 -4 0 -58 -51 -120 -113z"/>
<path d="M3910 3693 c-30 -18 -71 -47 -90 -63 l-35 -30 38 15 c21 8 52 24 69
36 l30 22 -15 -29 c-8 -16 -22 -47 -31 -69 l-16 -40 26 30 c25 29 90 153 83
159 -2 1 -29 -13 -59 -31z"/>
<path d="M5105 3318 c-4 -10 -4 -26 0 -35 8 -17 8 -17 12 0 3 9 3 25 0 35 -4
16 -4 16 -12 0z"/>
<path d="M2290 3237 c0 -8 11 -40 24 -73 13 -32 30 -85 37 -117 14 -65 25 -60
35 19 6 55 -5 87 -54 152 -26 34 -42 41 -42 19z"/>
<path d="M3060 3240 c24 -8 168 -14 159 -6 -2 2 -44 6 -94 9 -54 3 -80 2 -65
-3z"/>
<path d="M3288 3103 c12 -2 32 -2 45 0 12 2 2 4 -23 4 -25 0 -35 -2 -22 -4z"/>
<path d="M5073 2317 c-59 -101 -125 -193 -233 -322 -100 -120 -184 -254 -296
-470 -75 -147 -106 -225 -173 -441 -30 -96 -51 -145 -81 -187 -42 -58 -152
-153 -416 -357 -178 -138 -319 -275 -358 -349 -16 -29 -37 -85 -46 -123 l-18
-69 30 3 c28 3 32 9 58 81 55 156 130 232 500 510 118 89 232 177 253 195 20
19 37 30 37 25 0 -30 -168 -183 -422 -387 -54 -43 -98 -80 -98 -83 0 -2 14 4
31 14 40 23 719 532 719 538 0 3 -29 -13 -65 -36 -36 -23 -68 -39 -71 -36 -3
2 -7 20 -10 39 -5 29 -1 39 26 64 76 70 233 251 284 327 30 45 75 128 100 185
26 59 81 155 129 225 113 164 169 256 165 273 -2 9 -20 -7 -45 -38 -22 -29
-92 -109 -153 -178 -97 -107 -119 -140 -166 -236 -64 -132 -140 -248 -235
-360 -93 -110 -101 -116 -93 -73 16 91 84 263 173 439 133 264 181 344 287
485 152 200 238 345 232 391 -2 19 -10 11 -45 -49z"/>
<path d="M5095 2258 c-19 -49 -61 -121 -152 -261 -90 -137 -204 -327 -197
-327 13 0 133 102 195 167 37 37 92 101 123 142 l56 73 0 124 c0 68 -2 124 -4
124 -2 0 -11 -19 -21 -42z"/>
<path d="M165 1935 c8 -102 28 -198 64 -299 31 -88 122 -289 128 -283 2 3 -11
42 -28 88 -64 171 -122 357 -145 464 l-24 110 5 -80z"/>
<path d="M300 1937 c0 -5 9 -59 20 -120 18 -106 50 -214 99 -335 15 -38 21
-75 21 -132 0 -43 5 -102 11 -130 6 -27 9 -54 7 -59 -6 -17 -284 321 -394 479
l-59 85 -3 -183 -2 -183 72 -107 c123 -180 223 -299 412 -487 270 -269 579
-513 876 -694 105 -63 124 -72 161 -69 l41 3 -104 91 c-280 246 -697 686 -888
940 -46 59 -52 72 -47 104 2 20 16 55 31 78 14 23 26 52 26 65 0 13 -23 72
-50 131 -28 59 -87 195 -131 303 -78 192 -98 236 -99 220z"/>
<path d="M5080 1641 c-45 -71 -124 -173 -224 -291 -113 -132 -122 -150 -26
-50 172 179 293 336 288 373 -2 18 -9 13 -38 -32z"/>
<path d="M3748 1227 c-74 -53 -91 -70 -113 -117 -14 -30 -37 -76 -49 -102 -13
-27 -22 -48 -19 -48 2 0 18 7 34 16 29 15 79 98 79 133 0 7 37 51 82 97 45 46
80 84 77 83 -2 0 -43 -28 -91 -62z"/>
<path d="M4850 1174 c-52 -54 -81 -88 -65 -76 17 11 50 42 75 69 126 134 119
138 -10 7z"/>
<path d="M0 977 c0 -94 -10 -78 224 -366 155 -191 177 -221 159 -221 -21 0
-240 114 -307 159 l-76 52 0 -85 0 -84 128 -94 c209 -155 507 -346 519 -334 3
3 -13 31 -37 62 l-42 56 62 -42 c34 -23 64 -39 67 -36 16 16 -42 143 -81 175
-22 18 -21 26 14 99 17 35 30 70 30 77 0 7 -57 64 -128 126 -143 128 -378 359
-470 464 l-61 70 -1 -78z"/>
<path d="M1717 920 c16 -25 200 -263 229 -295 l27 -30 -18 30 c-35 57 -152
210 -200 260 -26 28 -43 43 -38 35z"/>
<path d="M3992 844 c-32 -34 -174 -239 -196 -284 -10 -20 63 60 128 140 60 74
120 170 112 178 -3 3 -23 -13 -44 -34z"/>
<path d="M5010 756 c-236 -245 -569 -500 -880 -676 -155 -87 -163 -80 86 -80
l220 0 115 66 c203 117 345 194 359 194 15 0 8 -6 -165 -154 -64 -54 -114
-100 -111 -103 5 -6 69 42 241 180 60 49 119 93 130 99 11 6 -40 -50 -112
-124 -73 -74 -133 -140 -133 -146 0 -8 19 -12 54 -12 l54 0 78 83 c44 46 101
120 127 164 47 79 48 81 45 157 l-3 78 -77 -56 c-97 -69 -268 -177 -268 -169
0 11 111 206 153 268 22 33 76 103 119 156 75 92 79 99 76 141 l-3 43 -105
-109z"/>
<path d="M3507 358 c-102 -103 -195 -212 -255 -300 -38 -56 -39 -58 -9 -58 18
0 36 20 82 92 75 116 159 224 238 306 34 34 58 62 54 62 -4 0 -53 -46 -110
-102z"/>
<path d="M2935 379 c-75 -40 -309 -215 -465 -348 l-35 -30 33 -1 c28 0 48 13
122 81 48 44 155 132 236 196 185 143 183 141 109 102z"/>
<path d="M3798 293 c-30 -27 -74 -70 -98 -97 l-42 -50 36 -29 c20 -16 36 -33
36 -37 0 -5 -12 -23 -27 -41 l-28 -33 48 34 c64 45 117 99 122 124 3 17 12
176 10 176 -1 0 -26 -21 -57 -47z"/>
<path d="M5045 70 l-69 -70 72 0 72 0 0 70 c0 39 -1 70 -3 70 -1 0 -34 -31
-72 -70z"/>
</g>
</svg>