<?xml version="1.0" standalone="no"?>
<!DOCTYPE svg PUBLIC "-//W3C//DTD SVG 20010904//EN"
 "http://www.w3.org/TR/2001/REC-SVG-20010904/DTD/svg10.dtd">
<svg version="1.0" xmlns="http://www.w3.org/2000/svg"
 width="512.000000pt" height="512.000000pt" viewBox="0 0 512.000000 512.000000"
 preserveAspectRatio="xMidYMid meet">
<metadata>
Created by potrace 1.16, written by Peter Selinger 2001-2019
</metadata>
<g transform="translate(0.000000,512.000000) scale(0.100000,-0.100000)"
fill="#000000" stroke="none">
<path d="M2445 4803 c-59 -7 -171 -36 -253 -66 -90 -32 -107 -46 -27 -21 89
26 267 54 350 54 175 0 368 -52 571 -155 180 -91 285 -165 404 -284 160 -160
198 -250 225 -534 8 -84 22 -189 30 -233 21 -110 34 -289 26 -349 -8 -51 -10
-49 -24 20 -3 11 -5 -18 -6 -65 -1 -62 -6 -96 -20 -123 -15 -29 -16 -39 -6
-47 10 -8 11 -20 4 -43 -12 -44 -12 -44 19 -15 39 37 65 48 114 48 56 0 105
-30 124 -77 20 -46 19 -160 -1 -238 -25 -96 -141 -319 -210 -402 -35 -43 -80
-45 -126 -6 l-32 27 7 121 c4 66 13 165 21 220 19 129 19 249 0 311 -22 72
-17 87 8 25 l21 -55 13 32 c10 25 10 38 -2 71 -7 22 -21 102 -30 178 -11 95
-26 169 -49 238 -29 88 -33 109 -29 180 6 107 -13 180 -88 332 -92 186 -192
285 -376 369 -212 97 -481 135 -724 103 -83 -11 -119 -22 -119 -37 0 -5 109
-8 243 -8 231 1 247 0 347 -26 297 -76 475 -206 580 -423 68 -141 81 -186 90
-305 4 -58 13 -118 19 -135 27 -64 52 -212 62 -363 11 -165 7 -294 -16 -502
-7 -69 -16 -170 -20 -225 -22 -354 -55 -499 -142 -617 -69 -94 -263 -242 -421
-322 -130 -65 -126 -66 -82 17 36 67 75 176 66 184 -2 2 -26 -36 -52 -84 -96
-173 -167 -216 -382 -236 -223 -19 -395 16 -455 94 -14 19 -47 88 -72 154 -60
158 -73 185 -85 185 -25 0 2 -133 45 -229 36 -78 7 -47 -71 75 -36 57 -68 104
-70 104 -19 0 91 -193 150 -265 l41 -49 -45 32 c-63 44 -214 192 -292 284
-140 167 -181 295 -198 623 -5 99 -17 218 -26 265 -25 138 -35 506 -17 685 24
245 53 366 133 559 66 158 273 332 521 436 63 27 99 48 99 57 0 43 -221 -41
-365 -139 -126 -85 -322 -260 -349 -312 -16 -33 -20 -56 -18 -135 2 -73 -4
-123 -23 -206 -14 -60 -25 -136 -25 -167 0 -32 -4 -58 -10 -58 -9 0 -16 82
-12 155 l1 30 -11 -25 c-17 -40 -22 -275 -8 -355 21 -112 8 -339 -14 -267 -4
12 -30 42 -58 67 -125 113 -194 10 -139 -208 28 -109 99 -243 118 -223 2 2
-11 44 -31 93 -39 98 -59 196 -54 263 3 44 4 45 41 48 33 3 43 -2 78 -36 43
-44 49 -66 19 -82 -47 -25 -67 -139 -33 -190 30 -46 77 -90 95 -90 30 0 21 26
-27 80 -37 42 -45 58 -45 90 0 38 25 70 56 70 20 0 46 -160 51 -316 l5 -151
-31 -13 c-29 -11 -35 -11 -58 7 -15 10 -34 41 -43 68 -10 28 -36 80 -58 117
-86 140 -132 289 -132 426 0 60 5 92 17 112 41 70 119 64 206 -19 l29 -26 -22
55 c-49 123 -63 198 -63 345 -1 97 4 154 14 184 14 42 14 36 14 -125 0 -137 4
-176 17 -204 17 -34 17 -30 11 125 -6 179 5 304 41 464 13 58 29 149 35 201
19 173 85 320 193 436 51 54 123 108 254 191 46 29 -66 -17 -126 -52 -175
-102 -275 -221 -334 -397 -9 -27 -25 -99 -36 -160 -11 -62 -38 -174 -59 -248
-66 -228 -76 -283 -75 -420 0 -77 6 -149 16 -187 l15 -63 -44 0 c-117 0 -169
-109 -143 -300 15 -113 60 -246 119 -350 26 -47 53 -101 61 -120 32 -83 86
-126 145 -117 l32 5 17 -108 c25 -161 63 -265 133 -364 39 -55 61 -133 93
-331 30 -179 30 -176 -37 -228 -81 -61 -126 -89 -292 -176 -159 -84 -297 -169
-326 -201 -19 -21 -19 -21 7 -11 15 5 53 23 85 39 32 16 128 57 213 92 191 76
276 121 335 172 25 22 48 39 50 36 5 -5 24 -386 26 -513 l1 -90 15 80 c20 105
22 465 5 595 -7 52 -24 160 -38 239 -14 79 -23 145 -21 147 2 3 22 -15 45 -40
35 -37 47 -63 82 -177 23 -74 68 -215 100 -314 81 -247 128 -402 155 -509 26
-100 31 -85 14 43 -14 113 -62 297 -153 586 -42 131 -75 243 -74 247 3 8 166
-112 308 -226 36 -29 82 -63 103 -76 43 -29 82 -87 121 -181 15 -36 38 -79 51
-95 l24 -29 -20 63 c-10 35 -19 75 -19 88 0 43 72 108 183 165 110 56 137 75
137 96 0 7 -8 13 -17 13 -33 1 21 35 109 70 187 74 347 170 496 298 42 35 49
39 43 20 -3 -13 -32 -99 -63 -193 -31 -93 -80 -271 -108 -395 -29 -123 -72
-289 -96 -369 -24 -79 -42 -146 -41 -148 8 -7 96 196 131 297 19 58 52 175 72
260 34 146 54 202 54 153 0 -11 9 -31 20 -44 l20 -24 -7 60 -6 60 172 -168
c101 -99 179 -167 191 -167 33 0 35 22 4 43 -45 32 -229 214 -301 297 -76 89
-76 77 -2 278 27 74 49 143 49 154 0 11 11 38 24 61 40 69 75 188 89 304 12
99 15 108 32 104 11 -2 43 -5 72 -5 44 -1 56 3 81 28 34 31 148 221 187 310
53 120 71 296 39 389 -27 80 -124 136 -206 120 l-28 -5 17 43 c11 30 17 88 20
184 4 116 0 167 -21 300 -14 88 -30 214 -35 280 -17 193 -56 308 -145 424
-179 232 -591 470 -910 526 -82 14 -188 17 -261 8z m-886 -905 c-7 -13 -18
-41 -25 -63 l-13 -40 0 33 c-1 19 8 47 20 63 24 34 35 38 18 7z m-132 -615
c-3 -10 -5 -4 -5 12 0 17 2 24 5 18 2 -7 2 -21 0 -30z"/>
<path d="M2405 4495 c-352 -56 -595 -151 -747 -293 -27 -25 -48 -42 -48 -38 0
15 61 125 85 155 15 17 23 31 18 31 -15 0 -100 -93 -132 -145 -31 -48 -89
-211 -79 -220 3 -3 21 19 42 49 42 61 167 171 264 233 121 77 342 152 547 184
44 7 143 13 220 13 226 -1 398 -41 600 -140 126 -61 248 -149 250 -179 1 -11
18 -41 38 -68 45 -59 89 -150 133 -276 l34 -96 -5 57 c-8 88 -61 221 -117 297
l-50 66 66 -65 c36 -35 66 -61 66 -56 0 22 -97 141 -151 186 -180 149 -365
243 -579 291 -115 26 -336 33 -455 14z"/>
<path d="M3288 3932 c71 -144 96 -216 122 -352 16 -86 18 -90 19 -45 3 169
-81 406 -176 497 -24 23 -19 9 35 -100z"/>
<path d="M1733 3933 c-22 -21 -52 -59 -66 -84 -25 -43 -70 -159 -64 -165 1 -1
24 39 49 89 26 51 66 116 88 145 22 28 38 52 37 52 -2 0 -22 -17 -44 -37z"/>
<path d="M3008 3934 c-65 -15 -158 -61 -203 -98 -44 -37 -13 -31 63 11 37 21
103 52 147 70 86 35 84 40 -7 17z"/>
<path d="M1980 3880 c-21 -7 -19 -8 16 -9 23 -1 71 -10 106 -21 104 -32 175
-107 193 -204 5 -26 11 -34 18 -27 7 7 6 28 -2 68 -11 48 -22 66 -70 114 -44
44 -70 61 -111 73 -57 17 -109 19 -150 6z"/>
<path d="M2333 3842 c60 -65 88 -128 94 -206 6 -79 -17 -125 -72 -144 -40 -13
-94 -4 -130 22 -18 13 -18 14 8 46 33 38 35 87 7 123 -32 41 -56 43 -95 8 -44
-38 -90 -45 -229 -33 -123 10 -161 5 -215 -31 -91 -60 -152 -170 -157 -282
l-3 -70 15 50 c55 178 125 265 215 265 18 0 82 -9 143 -20 61 -11 145 -26 186
-33 74 -12 72 -12 -110 -12 l-185 0 -54 -30 c-57 -32 -104 -81 -121 -128 -8
-26 -2 -22 54 30 85 80 163 107 298 101 81 -3 103 -8 166 -37 93 -44 152 -105
152 -157 0 -23 -12 -57 -31 -91 -36 -62 -34 -79 3 -31 48 63 61 98 55 152 -2
28 -8 59 -12 68 -6 15 5 23 56 48 80 37 103 37 174 0 31 -16 66 -30 77 -30 10
0 17 -3 14 -8 -2 -4 -20 -7 -40 -6 -21 1 -33 -2 -30 -8 3 -5 16 -7 28 -4 20 5
21 2 21 -62 0 -58 4 -72 28 -104 16 -20 40 -44 55 -54 22 -14 19 -8 -16 36
-54 67 -61 94 -36 139 24 46 94 87 209 126 76 25 105 30 190 30 93 0 106 -2
165 -32 57 -28 61 -29 35 -7 -16 13 -55 33 -85 44 l-55 20 50 -6 c79 -9 151
-54 206 -128 24 -32 29 -35 24 -16 -26 89 -121 206 -196 240 -37 16 -61 17
-198 13 -182 -5 -212 3 -245 71 -18 37 -20 38 -34 20 -24 -32 -52 -98 -51
-124 0 -34 19 -57 65 -79 l39 -19 -48 -21 c-55 -24 -85 -26 -120 -10 -51 23
-59 87 -26 195 19 60 30 77 90 136 38 38 66 68 61 68 -19 0 -110 -81 -138
-122 -17 -25 -41 -81 -52 -123 -24 -89 -27 -93 -50 -79 -10 7 -21 37 -29 82
-22 119 -63 193 -136 244 -26 18 -23 12 16 -30z"/>
<path d="M3637 3408 c16 -52 27 -121 30 -186 3 -56 8 -100 11 -97 12 12 19
104 12 166 -6 58 -58 199 -73 199 -2 0 7 -37 20 -82z"/>
<path d="M2876 3435 c-50 -17 -82 -41 -120 -88 -48 -60 -22 -54 56 13 40 34
83 66 96 71 12 5 22 11 22 14 0 8 -11 6 -54 -10z"/>
<path d="M2087 3396 c91 -82 135 -116 150 -116 26 0 -47 80 -111 122 -79 51
-100 48 -39 -6z"/>
<path d="M3150 3394 c25 -26 41 -45 35 -42 -5 2 -36 17 -69 32 -51 25 -66 28
-127 24 -76 -6 -151 -43 -211 -105 -46 -47 -16 -41 54 12 33 25 64 45 69 45 4
0 11 -15 14 -34 10 -50 38 -76 84 -76 47 0 78 31 83 83 l3 37 74 -35 c41 -20
78 -34 83 -33 14 5 -58 102 -90 121 -49 28 -49 20 -2 -29z m-122 -31 c-2 -10
-10 -18 -18 -18 -8 0 -16 8 -18 18 -2 12 3 17 18 17 15 0 20 -5 18 -17z"/>
<path d="M1787 3398 c-19 -18 -42 -48 -51 -65 l-16 -33 24 10 c14 5 42 18 63
28 21 11 48 23 61 26 20 7 22 4 22 -33 0 -52 27 -81 74 -81 46 0 77 28 85 74
l6 39 61 -49 62 -49 -58 -12 c-72 -15 -230 -75 -212 -81 7 -2 66 8 130 22 64
14 135 27 157 28 25 2 40 8 40 16 0 16 -146 135 -195 159 -56 27 -135 22 -200
-13 -78 -41 -79 -41 -35 5 46 48 32 56 -18 9z m223 -31 c0 -8 -3 -17 -6 -20
-10 -9 -46 12 -39 24 9 14 45 11 45 -4z"/>
<path d="M2423 3403 c9 -2 25 -2 35 0 9 3 1 5 -18 5 -19 0 -27 -2 -17 -5z"/>
<path d="M2484 3305 c-19 -47 -17 -130 5 -190 10 -27 31 -84 47 -125 27 -74
27 -76 11 -110 l-17 -34 26 25 c24 22 26 29 21 79 -3 30 -19 105 -37 165 -17
61 -32 136 -33 167 -1 32 -3 58 -5 58 -2 0 -10 -16 -18 -35z"/>
<path d="M1694 3242 c-21 -16 -55 -33 -74 -39 -21 -7 -27 -11 -15 -12 11 0 40
9 65 21 38 19 61 22 148 22 110 -2 121 7 34 25 -83 17 -114 14 -158 -17z"/>
<path d="M3120 3252 l-65 -17 100 -5 c55 -3 108 -10 118 -14 29 -14 19 1 -15
22 -50 30 -67 31 -138 14z"/>
<path d="M2732 3248 c-15 -19 -6 -28 27 -28 14 0 64 -9 111 -20 46 -12 112
-23 145 -26 l60 -5 -110 41 c-124 47 -213 61 -233 38z"/>
<path d="M2123 3169 c-120 -52 -217 -73 -308 -65 -63 4 -68 3 -50 -10 51 -38
178 -45 274 -15 58 18 136 67 175 110 26 29 15 26 -91 -20z"/>
<path d="M2779 3170 c95 -83 233 -124 344 -100 31 6 66 19 77 28 20 16 15 17
-97 17 -118 1 -118 1 -230 48 -62 26 -118 47 -125 47 -7 -1 7 -18 31 -40z"/>
<path d="M3380 3195 c0 -2 15 -12 33 -20 l32 -16 -25 20 c-24 20 -40 26 -40
16z"/>
<path d="M1551 3027 c-11 -19 -33 -65 -47 -103 -24 -64 -26 -77 -21 -184 3
-63 13 -140 22 -170 23 -78 47 -141 52 -137 2 3 -6 58 -18 123 -14 73 -22 160
-22 224 -1 92 3 116 30 193 17 48 29 87 28 87 -2 0 -13 -15 -24 -33z"/>
<path d="M3488 2943 c5 -143 -6 -189 -94 -392 -37 -83 -70 -183 -99 -296 -24
-93 -57 -201 -74 -240 -47 -106 -8 -46 59 90 117 240 228 540 250 681 14 85 5
166 -24 230 l-22 48 4 -121z"/>
<path d="M2668 3039 c-25 -14 -23 -39 3 -39 11 0 29 -5 41 -11 35 -19 60 -107
42 -153 -8 -20 -24 -21 -24 -2 0 24 -50 56 -86 56 -27 0 -46 -11 -94 -55 -52
-48 -65 -55 -101 -55 -49 0 -70 10 -132 66 -56 50 -97 63 -132 40 -33 -22 -35
-78 -3 -100 20 -14 24 -14 40 0 24 23 59 11 81 -26 24 -40 70 -62 128 -62 50
0 75 12 144 66 36 29 37 29 66 12 66 -39 149 15 149 97 l1 42 60 -65 c97 -104
171 -240 209 -380 l20 -75 -5 70 c-7 104 -29 178 -89 300 -98 198 -239 320
-318 274z"/>
<path d="M2112 2966 c-50 -41 -105 -96 -123 -122 l-32 -47 69 57 69 57 6 -35
c5 -29 33 -86 43 -86 2 0 1 22 -2 49 -6 63 2 92 34 130 28 33 69 41 93 19 10
-11 12 -7 9 17 -3 27 -7 30 -39 33 -33 3 -47 -5 -127 -72z"/>
<path d="M3795 2921 c-62 -38 -105 -108 -105 -171 0 -25 6 -33 38 -47 34 -17
37 -22 37 -58 0 -36 -4 -42 -37 -60 -60 -32 -72 -85 -19 -85 38 0 75 31 101
84 28 58 16 103 -41 162 -30 31 -39 47 -35 62 7 21 54 72 66 72 8 0 30 -56 53
-135 13 -42 15 -45 16 -20 0 17 -10 60 -22 96 l-22 66 33 -8 c44 -10 44 -10
50 -68 8 -90 -43 -240 -106 -313 -53 -59 -35 -69 26 -13 124 112 177 394 84
444 -31 17 -84 13 -117 -8z"/>
<path d="M1848 2798 c-25 -39 -69 -157 -84 -227 -18 -87 -18 -279 1 -378 15
-80 74 -268 81 -260 2 2 -5 42 -16 89 -28 118 -50 279 -50 368 0 126 31 294
71 388 20 47 19 54 -3 20z"/>
<path d="M3105 2783 c46 -109 114 -383 116 -471 l1 -37 10 40 c26 107 -10 281
-88 423 -32 57 -56 85 -39 45z"/>
<path d="M2079 2740 c-115 -76 -181 -244 -178 -458 l2 -97 8 70 c24 188 91
353 185 454 61 66 54 78 -17 31z"/>
<path d="M2757 2698 c105 -112 196 -303 242 -508 l19 -85 1 66 c3 218 -88 425
-233 531 -52 38 -67 36 -29 -4z"/>
<path d="M2207 2585 c-32 -11 -97 -51 -97 -60 0 -2 25 8 56 22 55 25 62 26
258 25 227 0 270 -9 363 -79 l48 -36 -40 42 c-22 23 -64 54 -93 68 -51 25 -60
26 -257 28 -136 1 -215 -2 -238 -10z"/>
<path d="M2165 2516 c-59 -27 -118 -89 -148 -154 -31 -70 -31 -229 1 -293 33
-67 124 -164 173 -183 126 -50 461 -31 588 33 53 28 112 98 135 162 65 180
-31 374 -219 440 -47 16 -82 19 -267 19 -202 0 -216 -1 -263 -24z m386 -42 c9
-3 20 -15 24 -27 l8 -22 4 24 c4 20 9 22 35 17 45 -9 59 -25 56 -60 -3 -33 -3
-33 -93 -27 -11 1 -72 -1 -135 -3 -73 -3 -119 -1 -127 6 -9 7 -17 7 -25 1 -23
-18 -68 -25 -69 -11 0 7 -5 3 -11 -9 -14 -29 -77 -51 -89 -32 -11 17 -11 33
-2 43 4 3 13 -4 20 -16 12 -22 12 -21 13 13 0 20 7 42 15 49 17 14 17 14 33
-15 10 -18 11 -17 12 11 0 26 6 34 31 44 34 14 49 4 49 -33 0 -10 5 -15 10
-12 6 3 10 14 10 24 0 33 21 40 119 39 53 0 103 -2 112 -4z m199 -89 c0 -30
-14 -39 -40 -25 -14 8 -20 21 -20 46 l0 35 30 -16 c21 -11 30 -23 30 -40z m35
-26 c0 -7 -8 -15 -17 -17 -12 -2 -15 2 -11 18 6 23 28 22 28 -1z m-65 -244
c29 -15 54 -42 64 -69 5 -14 3 -17 -11 -11 -52 20 -146 26 -346 22 -122 -2
-232 -7 -244 -11 -18 -7 -21 -5 -16 12 3 11 16 31 30 44 24 22 30 23 203 23
98 0 182 4 186 8 11 11 102 -2 134 -18z m-61 -84 c9 -6 11 -18 6 -40 -6 -27
-11 -31 -40 -31 -29 0 -33 4 -40 33 -7 33 -9 32 -19 -15 -6 -25 -11 -28 -46
-28 -37 0 -41 3 -46 30 -8 38 -22 39 -26 3 -3 -25 -7 -28 -43 -28 -37 0 -41 3
-52 35 -10 30 -12 32 -13 10 -1 -42 -14 -53 -54 -46 -26 5 -36 12 -36 26 0 10
-4 22 -10 25 -6 4 -10 -5 -10 -19 0 -29 -7 -31 -45 -14 -26 12 -33 32 -14 44
23 14 127 22 299 22 97 0 182 -3 189 -7z m75 -16 c20 -20 11 -42 -19 -48 -30
-5 -35 -1 -35 35 0 32 28 39 54 13z m46 -16 c0 -14 -17 -10 -23 5 -4 10 -1 13
9 9 7 -3 14 -9 14 -14z"/>
<path d="M1310 2440 c0 -5 5 -10 10 -10 6 0 10 5 10 10 0 6 -4 10 -10 10 -5 0
-10 -4 -10 -10z"/>
<path d="M1946 2095 c11 -65 25 -87 18 -30 -3 28 -10 55 -16 60 -6 7 -7 -3 -2
-30z"/>
<path d="M1944 1984 c12 -33 71 -125 74 -116 3 10 -56 120 -70 128 -8 5 -9 1
-4 -12z"/>
<path d="M2465 1820 l-90 -6 105 -1 c58 -1 125 2 150 6 l45 8 -60 0 c-33 0
-100 -4 -150 -7z"/>
<path d="M2243 1745 c-116 -26 -109 -34 32 -35 l130 -2 -62 -13 c-34 -8 -70
-19 -80 -25 -16 -10 -15 -11 7 -6 14 4 77 9 140 12 108 6 200 -5 275 -31 37
-13 -21 24 -62 41 -38 14 -38 14 33 9 39 -3 86 -7 105 -11 32 -5 33 -5 14 11
-11 8 -49 25 -85 37 -85 27 -351 35 -447 13z"/>
<path d="M3400 1087 c0 -7 15 -18 33 -25 17 -7 63 -38 101 -71 86 -73 157
-117 242 -147 114 -42 115 -27 2 34 -59 31 -135 80 -169 107 -110 89 -150 115
-180 115 -17 0 -29 -5 -29 -13z"/>
<path d="M2921 1015 c-4 -51 -149 -495 -181 -554 -6 -13 -9 -25 -6 -28 8 -9
110 210 140 300 34 103 58 227 53 269 -2 18 -5 24 -6 13z"/>
<path d="M3794 961 c12 -18 231 -99 241 -89 4 4 -200 88 -234 96 -8 2 -10 -1
-7 -7z"/>
<path d="M2270 870 c57 -116 104 -148 244 -165 l56 -7 15 36 c30 70 13 104
-21 41 -22 -41 -30 -42 -115 -15 -66 20 -101 47 -173 130 l-38 45 32 -65z"/>
</g>
</svg>