<?xml version="1.0" standalone="no"?>
<!DOCTYPE svg PUBLIC "-//W3C//DTD SVG 20010904//EN"
 "http://www.w3.org/TR/2001/REC-SVG-20010904/DTD/svg10.dtd">
<svg version="1.0" xmlns="http://www.w3.org/2000/svg"
 width="512.000000pt" height="512.000000pt" viewBox="0 0 512.000000 512.000000"
 preserveAspectRatio="xMidYMid meet">
<metadata>
Created by potrace 1.16, written by Peter Selinger 2001-2019
</metadata>
<g transform="translate(0.000000,512.000000) scale(0.100000,-0.100000)"
fill="#000000" stroke="none">
<path d="M3923 4948 c-113 -165 -288 -426 -307 -458 -8 -13 -7 -13 6 0 56 58
406 523 451 600 l18 30 -25 0 c-21 0 -43 -27 -143 -172z"/>
<path d="M4429 5012 c-61 -72 -145 -200 -137 -208 6 -5 108 125 163 209 21 31
36 59 34 61 -2 3 -29 -26 -60 -62z"/>
<path d="M5044 4933 c-38 -43 -172 -192 -299 -331 -164 -181 -256 -292 -322
-388 -50 -74 -89 -134 -86 -134 3 0 93 84 199 186 182 175 196 186 225 180 27
-5 41 4 137 82 119 98 176 142 184 142 4 0 -19 -71 -49 -157 -124 -356 -142
-410 -151 -450 -12 -52 -19 -55 126 62 l112 90 0 398 c0 218 -1 397 -3 397 -2
0 -35 -35 -73 -77z"/>
<path d="M1900 4921 c0 -23 70 -108 114 -138 l48 -33 -55 -25 c-107 -47 -173
-60 -317 -60 -126 0 -139 2 -188 26 l-54 27 29 -30 c15 -17 61 -57 102 -89
l74 -59 -87 -41 c-170 -79 -255 -61 -330 71 -14 25 -26 40 -26 33 0 -29 34
-111 61 -145 17 -21 26 -38 20 -38 -17 0 -68 49 -85 82 l-17 33 6 -35 c13 -79
79 -139 193 -176 l53 -17 -53 -38 c-72 -53 -125 -78 -180 -85 -39 -5 -49 -3
-68 16 -20 20 -22 30 -18 98 l4 75 -18 -40 c-10 -22 -19 -66 -20 -98 l-2 -57
-28 31 -27 31 6 -33 c9 -50 31 -88 82 -141 l46 -48 -81 5 c-90 5 -162 31 -207
74 -15 15 -27 23 -27 19 0 -18 44 -91 78 -128 54 -60 100 -78 203 -78 94 0
162 16 249 60 42 21 75 29 140 33 47 3 96 9 110 12 l25 7 -25 -20 c-102 -83
-291 -145 -450 -146 -106 -1 -150 11 -204 53 -48 39 -185 207 -207 256 l-19
40 0 -41 c0 -116 68 -244 203 -379 108 -108 116 -123 117 -231 0 -106 -48
-195 -144 -267 -40 -29 -40 -29 -11 -23 86 19 137 39 193 76 l62 40 -7 -28
c-4 -15 -7 -65 -6 -112 1 -115 26 -180 104 -265 l59 -65 0 -103 c1 -207 69
-384 178 -459 15 -10 29 -39 43 -88 30 -111 60 -164 163 -295 l94 -121 -126
-131 c-70 -72 -146 -145 -169 -162 -30 -22 -54 -56 -85 -116 -41 -80 -46 -86
-99 -110 -36 -16 -105 -32 -185 -44 -128 -19 -129 -20 -162 -58 -19 -21 -50
-64 -70 -96 -32 -53 -47 -65 -151 -126 -64 -37 -197 -110 -296 -161 -320 -165
-364 -196 -424 -302 -25 -43 -31 -64 -31 -113 l0 -60 52 98 52 98 19 -37 c19
-37 19 -38 -7 -143 -31 -129 -62 -340 -53 -364 4 -10 17 -17 31 -17 23 0 23 2
15 38 -9 40 9 248 21 235 4 -5 33 -68 65 -140 34 -79 63 -133 71 -133 17 0 14
8 -75 190 l-61 125 19 79 c13 52 25 83 37 90 11 6 98 43 194 82 96 39 198 83
227 97 29 15 57 27 63 27 7 0 10 -114 10 -345 l0 -345 45 0 c41 0 45 2 45 25
0 32 13 32 38 0 18 -22 27 -25 91 -25 l71 0 0 143 c0 114 3 147 16 165 8 12
64 47 122 77 59 30 121 64 139 75 l31 21 7 -23 c11 -35 36 -58 63 -58 15 0 60
26 113 66 94 70 295 164 350 164 24 0 39 -13 94 -84 38 -47 89 -100 121 -121
68 -47 139 -125 154 -169 9 -27 6 -51 -18 -144 l-29 -112 33 0 c37 0 34 -8 74
165 32 135 27 162 -70 370 -93 201 -107 257 -71 289 21 19 24 19 195 -4 136
-18 202 -22 298 -17 137 6 183 18 320 87 126 64 181 104 267 197 l79 84 -52
-118 -53 -118 -154 -80 c-188 -98 -202 -105 -196 -111 7 -7 137 42 235 89 48
22 91 43 96 45 5 3 -1 -10 -14 -28 -13 -18 -35 -63 -50 -99 l-27 -66 -69 -22
c-38 -12 -124 -36 -192 -54 l-122 -32 -33 -60 -32 -60 -110 -38 c-172 -60
-195 -77 -195 -147 l0 -27 19 31 c25 42 51 59 141 93 119 45 124 47 115 25
-13 -33 -76 -216 -105 -306 l-28 -88 97 0 97 0 49 142 c26 79 55 152 64 162
16 19 112 68 119 61 2 -2 -1 -18 -7 -36 -6 -18 -11 -71 -11 -119 l0 -86 -81
-58 c-44 -32 -78 -60 -75 -63 6 -6 100 61 146 103 l25 22 128 -21 129 -21 -49
-43 -48 -42 31 -1 c23 0 54 18 123 70 l93 70 66 0 c44 0 81 -7 109 -19 23 -11
51 -17 63 -14 19 5 20 3 14 -23 -4 -16 -11 -39 -15 -52 -5 -13 -9 -25 -9 -28
0 -2 141 -4 314 -4 l314 0 7 27 c13 54 261 630 280 651 2 2 39 -18 82 -44 43
-26 142 -81 221 -121 78 -41 142 -78 142 -81 0 -4 -36 -79 -80 -167 -44 -88
-88 -184 -100 -212 l-20 -53 44 0 44 0 77 208 c43 114 80 213 83 220 3 9 18 0
47 -28 l42 -41 35 48 c19 26 49 69 66 95 l32 47 0 158 c0 189 -13 249 -63 288
-18 13 -85 62 -149 107 -64 46 -181 133 -260 194 -139 107 -146 111 -262 149
l-118 39 -124 -17 c-107 -15 -196 -36 -256 -62 -27 -11 -64 57 -77 145 -7 41
-21 93 -31 115 -22 46 -138 191 -198 249 l-41 39 24 47 c13 26 40 102 59 170
34 116 46 139 72 140 22 0 53 41 69 92 22 67 35 82 107 120 83 44 112 82 146
190 62 193 98 448 89 633 -6 134 -27 217 -75 292 -17 28 -33 70 -37 98 -17
128 -122 365 -211 478 -49 63 -141 143 -212 184 -26 15 -101 67 -167 115 -66
48 -149 103 -185 122 -81 42 -240 94 -317 102 -32 4 -94 22 -137 41 -231 100
-443 118 -632 53 -34 -12 -67 -17 -83 -13 -51 12 -99 43 -121 78 -22 35 -30
42 -30 26z m580 -112 c101 -16 233 -63 377 -135 154 -77 165 -86 130 -109 -24
-15 -27 -15 -79 18 -117 75 -276 144 -420 183 -35 9 -121 20 -193 23 -128 6
-129 7 -75 18 73 14 180 15 260 2z m519 -144 c88 -28 102 -39 71 -55 -18 -10
-32 -4 -92 34 -39 25 -69 46 -65 46 3 0 42 -11 86 -25z m-394 -59 c66 -14 131
-29 145 -32 24 -6 23 -7 -30 -55 l-55 -50 40 8 c52 9 192 7 230 -5 24 -7 12
-10 -65 -15 -100 -6 -202 -33 -283 -73 -26 -14 -96 -64 -155 -112 -59 -48
-190 -143 -292 -211 -102 -68 -210 -143 -240 -166 -152 -115 -269 -167 -390
-171 -72 -3 -80 -2 -50 7 19 6 71 22 115 35 93 27 205 97 279 173 l49 50 -60
-24 c-81 -33 -248 -77 -276 -73 -13 2 5 10 47 21 92 24 101 29 265 156 79 61
145 111 148 111 12 0 -42 -63 -103 -119 -62 -59 -64 -61 -28 -46 20 8 89 66
153 128 95 92 137 125 229 177 61 35 110 65 108 67 -9 9 -153 -29 -208 -56
-82 -39 -230 -132 -293 -184 -49 -40 -44 -29 21 43 17 19 43 52 58 72 l28 37
-61 -24 c-34 -13 -59 -19 -56 -14 11 17 163 129 252 184 48 30 84 55 80 55 -3
0 -42 -13 -86 -29 -102 -37 -207 -106 -296 -192 -61 -60 -301 -226 -312 -216
-7 7 288 306 339 344 29 21 84 54 122 75 83 44 96 45 -209 -17 -115 -24 -237
-46 -270 -49 -55 -5 -57 -5 -16 4 60 13 156 45 271 90 111 44 213 74 365 106
146 32 315 28 490 -10z m598 -27 c53 -28 117 -70 117 -78 0 -3 -16 -18 -35
-34 l-35 -27 -85 57 -86 57 28 22 c35 29 44 29 96 3z m213 -155 c35 -25 66
-49 68 -53 3 -4 -10 -15 -28 -25 l-33 -17 -72 49 -72 50 28 21 c16 11 32 21
36 21 5 0 37 -21 73 -46z m-525 -116 c-209 -147 -311 -220 -311 -224 0 -11
225 131 269 170 19 16 18 12 -7 -21 -42 -54 -91 -96 -176 -151 -87 -57 -290
-153 -380 -181 -60 -19 -232 -52 -261 -51 -5 1 63 25 153 55 138 47 338 132
329 142 -2 1 -66 -20 -143 -49 -136 -49 -325 -108 -348 -108 -6 1 48 22 119
49 163 60 247 97 355 156 129 71 131 81 5 25 -107 -48 -239 -100 -242 -96 -5
4 61 43 147 86 76 38 253 151 246 157 -6 7 -127 -51 -189 -90 -31 -20 -76 -49
-99 -63 l-43 -27 25 28 c41 46 169 144 222 171 81 41 182 63 291 63 l99 1 -61
-42z m811 -38 c41 -46 82 -100 76 -100 -2 0 -44 41 -93 91 -64 65 -80 86 -56
73 18 -11 51 -39 73 -64z m-114 1 c177 -125 262 -241 341 -464 40 -113 40
-119 1 -106 -20 8 -39 8 -59 1 -26 -9 -28 -8 -24 9 10 38 -19 146 -67 244 -57
119 -132 205 -250 291 -44 31 -80 59 -80 62 0 5 32 31 38 32 2 0 47 -31 100
-69z m-1998 -2 c-8 -5 -68 -37 -133 -70 -125 -63 -211 -89 -230 -70 -8 8 -3
11 19 11 17 0 78 23 135 51 129 64 258 112 209 78z m1653 -63 c184 -65 298
-201 304 -361 l3 -70 -18 75 c-32 131 -87 211 -197 282 -89 58 -178 82 -282
75 -86 -5 -100 -1 -41 13 68 16 161 10 231 -14z m16 -67 c65 -28 108 -65 131
-108 20 -41 46 -168 36 -178 -3 -4 -6 5 -6 18 -1 13 -7 38 -15 54 l-13 30 -2
-35 -1 -35 -13 40 c-12 36 -53 125 -59 125 -1 0 -3 -62 -3 -138 -1 -75 1 -119
5 -97 l6 40 17 -50 c27 -80 30 -142 18 -316 -14 -197 -29 -241 -22 -66 5 135
-6 248 -18 192 l-7 -30 -7 30 c-15 60 -79 241 -102 285 -27 54 -70 107 -78 99
-10 -10 33 -137 85 -251 45 -98 56 -133 73 -238 9 -50 -9 -24 -23 34 -23 95
-113 247 -205 344 -27 29 -47 55 -44 57 3 3 29 -13 57 -36 l53 -41 -24 42
c-37 66 -89 121 -132 141 -26 11 -35 20 -26 23 31 10 122 26 148 26 24 -1 25
-2 11 -13 -15 -11 -9 -19 48 -65 35 -30 74 -69 85 -88 11 -19 23 -33 26 -30 8
8 -19 96 -46 151 -22 45 -22 48 -4 30 12 -11 35 -46 51 -79 39 -73 43 -38 6
42 -14 30 -22 58 -19 63 3 5 4 9 2 9 -2 0 -30 12 -63 26 l-60 25 45 -6 c24 -3
64 -15 89 -26z m355 -42 c25 -35 64 -102 87 -150 33 -70 41 -97 42 -149 1 -35
-1 -75 -5 -89 -7 -24 -10 -25 -62 -21 -77 6 -120 -21 -140 -88 -17 -57 -106
-233 -114 -226 -3 3 18 53 46 112 46 93 52 113 52 168 0 56 3 65 30 91 63 61
78 229 32 358 -11 31 -19 57 -17 57 2 0 24 -28 49 -63z m-2149 24 c-13 -23
-109 -43 -175 -39 -114 8 -109 23 8 24 59 1 121 7 137 12 17 6 31 11 33 11 2
1 1 -3 -3 -8z m1244 -98 c-133 -142 -245 -197 -486 -239 -173 -30 -220 -49
-328 -134 -44 -35 -87 -68 -95 -74 -8 -6 1 10 20 37 40 57 117 118 183 146 26
11 103 30 170 41 217 37 355 94 488 200 41 33 76 60 78 60 3 0 -11 -17 -30
-37z m226 -56 c26 -40 55 -137 75 -256 11 -64 38 -181 59 -260 22 -80 38 -149
34 -153 -3 -5 2 -17 10 -26 8 -9 31 -60 52 -112 36 -93 37 -97 31 -190 -8
-110 11 -242 43 -315 25 -56 25 -58 9 -50 -7 4 -4 0 6 -9 16 -13 18 -24 13
-79 -8 -84 -41 -207 -76 -283 -25 -54 -276 -501 -289 -514 -2 -3 -2 23 0 57 3
46 11 72 33 105 28 42 29 43 36 18 8 -24 8 -23 7 5 -1 17 9 50 21 75 30 57 30
57 42 40 7 -11 9 -6 8 20 -2 48 2 59 10 31 6 -22 8 -20 33 25 25 47 100 330
113 427 6 44 8 46 28 37 22 -10 22 -10 0 6 -18 13 -23 26 -23 59 0 51 -10 105
-19 105 -4 0 -13 -35 -20 -77 -40 -243 -119 -478 -192 -572 l-19 -24 0 29 c0
55 -22 106 -63 151 -62 67 -78 72 -51 15 13 -26 26 -64 30 -85 l6 -37 -68 71
c-120 124 -269 224 -298 200 -11 -9 -15 -6 -20 13 -7 27 -53 86 -67 86 -5 0 0
-13 11 -28 11 -15 23 -44 26 -64 6 -34 4 -38 -32 -60 -58 -36 -85 -44 -49 -14
24 20 26 25 12 26 -31 0 -59 -20 -122 -85 -66 -68 -102 -82 -164 -61 -26 8
-43 25 -66 65 -30 51 -59 81 -77 81 -18 0 -6 -25 25 -52 30 -27 31 -29 7 -22
-50 12 -70 33 -70 68 0 52 9 66 41 66 16 0 32 7 38 18 8 14 10 10 11 -20 0
-20 4 -39 9 -42 9 -6 21 64 21 128 0 70 28 227 54 307 28 87 24 134 -17 178
-47 50 -60 79 -54 118 4 20 11 39 17 43 9 5 8 19 -2 51 l-13 44 -8 -60 c-21
-161 -22 -146 21 -200 62 -79 62 -82 -7 -205 -90 -160 -102 -206 -29 -107 l30
42 -5 -35 c-3 -19 -9 -74 -12 -121 l-7 -86 -42 1 c-37 1 -43 -2 -58 -34 -10
-20 -18 -58 -18 -87 0 -37 -11 -77 -41 -150 -48 -114 -57 -173 -35 -229 15
-36 9 -32 -73 53 -107 110 -132 150 -165 265 -26 89 -51 276 -42 306 3 10 6
60 7 112 1 89 -1 102 -41 205 -35 91 -43 123 -44 182 -2 116 -2 116 199 49
179 -60 261 -71 301 -41 18 14 18 16 -20 90 -22 41 -43 75 -48 75 -14 0 -9
-19 18 -71 14 -28 21 -49 17 -46 -5 3 -20 29 -33 57 l-24 51 -40 -6 c-34 -5
-53 -1 -108 27 -82 42 -78 30 11 -27 37 -24 85 -65 105 -92 l38 -48 -45 46
c-25 26 -102 82 -171 124 -111 69 -123 80 -108 91 32 25 108 17 189 -21 42
-19 78 -34 79 -32 2 2 -29 23 -68 47 -60 37 -82 45 -133 48 -57 4 -64 2 -108
-32 l-47 -36 0 54 0 53 73 6 c91 8 227 32 292 51 28 9 88 38 135 66 129 76
216 116 309 140 46 11 85 20 87 18 1 -2 -38 -27 -89 -55 -51 -28 -131 -83
-178 -121 -132 -107 -132 -107 -284 -106 l-130 2 77 -22 c48 -14 109 -43 160
-75 46 -29 74 -43 63 -32 -11 11 -47 36 -79 55 l-60 36 50 0 c61 0 125 31 218
104 38 30 134 89 213 131 213 112 273 151 372 243 49 45 96 82 105 82 25 0 83
-57 99 -99 9 -21 23 -90 32 -152 22 -152 40 -231 66 -281 29 -57 91 -149 96
-144 3 3 -11 33 -30 68 -49 88 -64 142 -87 304 -21 151 -43 225 -85 280 l-26
34 25 0 c16 0 31 -9 41 -23z m-1184 -101 c-6 -7 -44 -28 -83 -47 -69 -32 -79
-34 -183 -34 -85 0 -118 4 -145 18 -19 9 -26 14 -15 11 11 -4 59 -9 106 -12
91 -5 186 15 279 57 54 25 56 25 41 7z m-591 -120 c39 -16 70 -30 68 -31 -2
-2 -25 1 -52 6 -52 9 -154 69 -197 115 -16 17 -4 12 43 -19 36 -24 98 -56 138
-71z m1943 42 c30 -40 64 -91 75 -113 25 -51 45 -140 40 -185 l-3 -35 -24 45
c-13 25 -39 66 -57 91 -44 60 -43 72 1 29 19 -19 35 -31 35 -28 0 17 -58 126
-64 120 -4 -3 -4 2 0 12 6 15 4 17 -6 11 -9 -5 -11 -4 -6 4 4 6 -6 36 -23 66
-17 30 -29 55 -27 55 2 0 29 -33 59 -72z m326 -9 c20 31 22 -53 3 -119 l-19
-65 -7 80 c-3 44 -9 91 -12 105 -6 24 -6 25 10 5 13 -17 17 -18 25 -6z m-2082
-108 c62 -4 115 -10 118 -13 4 -3 -10 -12 -31 -18 -54 -18 -145 -7 -210 26
-64 33 -82 50 -27 27 22 -9 86 -18 150 -22z m468 10 c-17 -17 -318 -110 -385
-120 -102 -14 -224 10 -258 52 -11 13 -4 13 50 -4 104 -31 195 -26 342 21 69
22 154 44 188 49 35 4 65 9 68 10 2 0 0 -3 -5 -8z m-660 -125 c-7 -49 -58
-147 -93 -178 l-26 -23 24 33 c27 39 60 141 60 183 0 17 -7 44 -16 62 l-16 32
37 -35 c33 -32 36 -38 30 -74z m2815 78 c17 -15 40 -44 50 -65 26 -50 50 -153
49 -209 -1 -44 -1 -44 -10 -14 -14 50 -71 128 -101 138 -48 17 -89 -12 -142
-99 -25 -41 -46 -78 -46 -81 0 -3 17 16 39 43 48 61 97 103 120 103 88 0 150
-207 123 -412 -6 -51 -17 -110 -23 -130 -16 -50 -65 -107 -107 -125 -30 -13
-37 -12 -65 5 -20 11 -43 40 -62 78 -28 56 -30 66 -30 179 0 109 2 125 27 177
56 120 113 165 161 128 30 -24 53 -79 61 -145 l6 -50 -15 45 c-21 62 -46 93
-79 93 -63 0 -108 -92 -114 -235 -4 -87 -2 -102 21 -152 31 -68 64 -88 105
-65 66 37 97 139 97 319 0 106 -2 120 -28 173 -26 52 -64 87 -96 87 -28 0 -87
-71 -122 -145 -44 -94 -59 -149 -59 -225 0 -147 83 -300 162 -300 33 0 91 31
108 58 19 31 0 -28 -32 -95 -34 -72 -93 -128 -151 -144 -112 -30 -177 53 -206
266 -14 98 -14 284 0 361 27 156 103 317 190 406 51 52 61 58 97 58 29 0 49
-7 72 -26z m-320 -32 c-35 -36 -58 -76 -93 -158 -44 -105 -97 -268 -97 -303
-1 -14 -2 -14 -11 2 -13 22 -7 51 38 192 59 185 137 315 187 315 20 0 17 -6
-24 -48z m72 -39 c-28 -40 -75 -137 -105 -218 -46 -123 -60 -200 -61 -346 -1
-76 -4 -135 -9 -132 -15 9 -35 59 -41 104 -10 65 10 220 40 308 52 158 141
311 181 311 11 0 10 -6 -5 -27z m-2531 -44 l-9 -34 -1 31 c-1 17 2 34 6 37 12
13 14 -1 4 -34z m127 -121 l-6 -73 28 60 c39 83 37 55 -5 -60 -50 -139 -55
-216 -19 -309 16 -42 -19 -2 -42 48 -27 58 -33 146 -11 168 8 7 17 38 21 68
10 80 28 170 34 170 2 0 2 -33 0 -72z m1860 0 c73 -112 85 -163 58 -238 l-13
-35 -12 45 c-27 103 -70 256 -76 273 -14 33 3 16 43 -45z m165 -295 c-4 -122
-2 -180 11 -253 22 -129 53 -219 88 -253 32 -32 58 -31 132 4 48 23 62 24 70
4 6 -16 -31 -36 -115 -64 -60 -19 -111 14 -144 93 -25 60 -55 212 -62 321 l-7
100 -14 -45 c-16 -53 -11 -161 13 -264 18 -77 13 -98 -10 -42 -57 136 -57 270
-1 444 21 61 39 112 41 112 2 0 1 -71 -2 -157z m637 89 c7 -15 15 -56 17 -92
4 -54 1 -73 -19 -110 -18 -35 -29 -46 -51 -48 -23 -3 -30 2 -42 32 -29 69 -14
188 30 232 28 28 47 23 65 -14z m-2620 -79 c7 -32 28 -98 47 -146 20 -48 33
-90 30 -93 -8 -9 -74 135 -86 186 -11 46 -14 110 -7 110 3 0 10 -26 16 -57z
m24 -249 c3 -9 6 -36 6 -60 0 -63 27 -187 57 -262 14 -35 23 -65 20 -68 -9 -9
-57 76 -78 138 -24 70 -40 268 -22 268 6 0 14 -7 17 -16z m89 -113 c6 -35 -6
-149 -14 -136 -17 25 -39 124 -39 169 l1 51 23 -29 c13 -16 26 -41 29 -55z
m2001 -251 c25 -8 60 -10 102 -5 73 8 71 10 51 -79 -10 -42 -16 -51 -42 -58
-44 -12 -103 -1 -171 32 -90 44 -98 52 -90 97 4 21 12 53 17 71 l11 33 42 -39
c24 -22 60 -45 80 -52z m-1984 15 c0 -5 -5 -3 -10 5 -5 8 -10 20 -10 25 0 6 5
3 10 -5 5 -8 10 -19 10 -25z m1089 -179 c15 -8 34 -22 42 -32 13 -16 12 -16
-18 -1 -18 10 -37 17 -43 17 -12 0 12 -52 39 -85 15 -19 15 -19 -3 -5 -10 8
-26 15 -35 15 -10 0 -18 14 -23 43 -4 23 -10 47 -13 52 -9 15 22 12 54 -4z
m841 -32 c39 -14 88 -24 121 -24 l57 0 -24 -76 c-32 -104 -74 -213 -84 -219
-5 -3 -50 9 -101 26 l-91 32 6 46 c3 25 9 92 12 149 6 89 9 102 23 96 9 -3 45
-17 81 -30z m-980 -29 c0 -5 -106 -77 -140 -95 -39 -20 -12 3 65 54 72 48 75
49 75 41z m-488 -78 c-34 -36 -52 -92 -53 -164 l-1 -68 -10 45 c-12 61 -3 150
23 210 l21 50 20 -26 20 -25 -20 -22z m779 -42 c57 -17 85 -22 90 -14 11 19
49 -57 59 -119 7 -43 5 -105 -8 -238 l-19 -179 -73 -145 c-108 -213 -138 -239
-285 -254 -79 -8 -283 9 -327 27 -48 20 -106 73 -129 119 -21 41 -82 268 -75
276 3 2 17 -36 31 -84 49 -165 56 -181 90 -222 60 -69 105 -84 272 -90 182 -6
236 4 285 56 78 81 144 233 155 351 3 36 3 64 1 61 -3 -3 -25 -49 -48 -102
-25 -56 -47 -95 -53 -91 -5 3 -7 1 -4 -4 4 -6 -1 -29 -11 -52 -15 -32 -21 -38
-31 -28 -10 9 -11 8 -5 -6 17 -44 -71 -136 -116 -122 -11 4 -17 11 -14 17 4 6
2 8 -3 5 -6 -4 -23 11 -38 33 -15 22 -30 38 -32 36 -6 -5 25 -66 45 -88 14
-16 14 -18 -1 -18 -9 0 -30 21 -47 46 -35 50 -51 53 -26 5 29 -56 16 -57 -15
-1 -16 30 -37 62 -46 70 -14 14 -15 11 -10 -30 3 -25 9 -55 13 -67 3 -13 2
-23 -4 -23 -5 0 -13 11 -16 25 -8 30 -26 33 -33 4 -5 -16 -12 -19 -42 -17 -30
3 -36 7 -36 27 0 13 -5 26 -11 28 -7 2 -10 -6 -7 -22 4 -17 1 -25 -8 -25 -30
0 -41 18 -37 54 4 39 -8 51 -15 14 -4 -23 -4 -23 -15 2 -6 14 -11 19 -11 12
-2 -24 -21 -1 -21 24 0 14 4 22 10 19 14 -9 12 7 -5 28 -13 18 -14 17 -17 -10
-3 -20 -15 8 -47 107 -23 74 -53 163 -66 198 -13 34 -18 59 -12 55 6 -4 8 0 4
10 -3 9 -13 51 -22 94 -21 101 -14 154 26 187 28 24 34 25 167 24 123 0 146 2
220 26 162 53 227 54 373 11z m512 -45 c-8 -43 -16 -172 -19 -305 -5 -211 -8
-240 -35 -345 -16 -63 -50 -175 -76 -249 -54 -155 -71 -177 -199 -253 -109
-64 -187 -88 -308 -95 -106 -6 -273 10 -290 27 -12 12 -96 210 -89 210 3 0 44
-17 92 -39 129 -58 175 -71 251 -71 86 0 114 11 141 52 l21 33 -5 -44 c-12
-97 23 -5 88 234 55 201 115 338 267 610 58 105 120 219 138 254 17 34 33 61
34 60 2 -2 -3 -38 -11 -79z m411 -408 c38 -121 110 -249 265 -471 33 -47 38
-81 20 -146 -25 -91 -317 -763 -375 -863 -28 -47 -45 -51 -89 -22 -26 17 -47
20 -168 20 -148 0 -138 -2 -270 68 -61 33 -77 33 -115 -1 -16 -16 -25 -18 -34
-9 -16 16 23 90 132 255 104 158 269 450 351 622 116 243 219 534 219 620 l1
40 23 -28 c12 -16 31 -54 40 -85z m-242 -16 c17 -33 20 -53 16 -110 -3 -39
-13 -98 -23 -130 l-17 -59 -24 74 c-29 91 -54 224 -54 292 l0 51 41 -39 c22
-22 50 -58 61 -79z m-1694 -28 c-34 -71 -43 -163 -23 -259 33 -167 70 -261
131 -335 63 -77 86 -119 179 -334 75 -174 119 -259 176 -339 21 -30 39 -63 39
-74 0 -13 -10 -4 -32 29 -19 28 -67 75 -111 108 -54 40 -97 83 -135 137 -31
43 -72 86 -90 96 -33 18 -33 18 -145 -21 -160 -55 -203 -78 -279 -146 -36 -33
-71 -60 -77 -60 -40 0 -12 486 44 765 24 122 75 244 104 253 11 4 12 0 6 -14
-23 -55 -36 -144 -40 -269 -4 -130 -3 -134 5 -50 5 50 17 135 26 190 9 55 18
113 19 128 1 21 15 40 53 70 28 23 74 70 103 105 29 34 56 62 60 62 4 0 -2
-19 -13 -42z m224 -333 c-5 -170 4 -228 59 -372 21 -56 42 -122 45 -145 6 -39
5 -41 -9 -28 -26 25 -86 143 -112 219 -13 40 -35 89 -47 109 -20 32 -23 50
-22 127 1 110 14 160 53 203 17 17 32 32 34 32 2 0 1 -65 -1 -145z m2388 35
c97 -22 113 -34 179 -145 33 -57 62 -115 63 -129 2 -24 5 -25 40 -20 31 6 47
1 93 -27 53 -32 55 -35 55 -77 l0 -44 -37 23 c-120 73 -173 110 -168 119 3 5
-7 10 -21 12 -22 2 -34 17 -70 87 -91 175 -107 185 -282 177 -135 -6 -123 6
23 23 39 5 72 9 75 9 3 1 25 -3 50 -8z m-328 -48 c35 -26 164 -117 288 -202
124 -84 227 -155 228 -156 3 -2 -60 -124 -74 -142 -1 -2 -30 16 -65 38 -35 23
-137 78 -226 123 -97 49 -163 88 -163 96 0 8 7 43 16 78 20 81 14 103 -43 164
-25 27 -41 49 -35 49 6 0 39 -22 74 -48z m-1672 -13 c0 -5 -4 -9 -10 -9 -5 0
-10 7 -10 16 0 8 5 12 10 9 6 -3 10 -10 10 -16z m1999 -28 c12 -16 21 -42 21
-58 0 -25 -3 -23 -30 26 -34 61 -34 61 -21 61 5 0 19 -13 30 -29z m-3053 -52
c-21 -18 -57 -47 -81 -66 l-44 -33 -3 -88 -3 -87 -45 -22 c-223 -111 -454
-216 -600 -272 -96 -38 -208 -85 -247 -105 -82 -41 -83 -41 -83 -23 0 16 24
34 199 149 75 50 141 95 146 101 16 16 -183 -91 -255 -138 -36 -23 -73 -49
-83 -59 -16 -17 -17 -16 -26 6 -5 14 -5 28 2 36 16 20 124 80 337 189 107 55
263 140 345 190 153 93 467 264 474 258 2 -2 -13 -18 -33 -36z m3559 -120
l204 -141 10 -50 c21 -96 21 -96 -112 10 -68 54 -152 115 -187 137 -76 45
-114 77 -142 123 -21 35 -18 62 7 62 9 0 108 -64 220 -141z m-3716 97 c-2 -1
-44 -25 -94 -51 l-90 -48 35 37 c21 22 53 42 80 51 43 13 78 19 69 11z m3587
-357 c292 -179 354 -220 347 -232 -4 -7 -31 -45 -61 -85 l-54 -72 -37 22
c-114 69 -394 270 -421 303 -9 11 -6 24 16 62 38 68 54 93 58 93 2 0 70 -41
152 -91z m-487 -105 c-10 -116 -23 -165 -52 -192 -24 -23 -383 -140 -394 -129
-8 9 16 73 35 89 9 8 86 37 169 63 l153 48 15 56 c20 72 67 174 75 164 4 -5 4
-49 -1 -99z m-3199 -49 c-140 -28 -231 -40 -210 -27 13 9 155 36 235 45 88 11
76 2 -25 -18z m151 -54 c-24 -81 -23 -80 -191 -146 -52 -20 -116 -46 -142 -56
-27 -10 -48 -16 -48 -13 0 7 106 55 240 109 90 37 105 47 113 71 19 63 39 115
44 110 3 -3 -4 -37 -16 -75z m1853 7 c-5 -7 -34 -56 -66 -108 -32 -52 -62
-101 -66 -109 -9 -16 -90 -46 -99 -37 -11 10 50 89 138 178 80 81 112 107 93
76z m2024 -144 c-49 -68 -63 -82 -74 -73 -12 10 -10 17 9 43 13 17 41 54 62
83 28 38 42 50 51 42 9 -7 -3 -31 -48 -95z m-1008 -166 c-30 -157 -47 -177
-192 -228 -143 -49 -176 -25 -145 107 28 114 38 143 46 143 4 0 -3 -46 -16
-101 -25 -105 -25 -142 3 -153 23 -9 195 53 226 82 30 27 40 53 59 147 12 64
27 110 33 104 2 -2 -4 -48 -14 -101z"/>
<path d="M2450 4504 c-36 -7 -94 -26 -130 -40 -72 -30 -214 -119 -245 -154
-11 -13 12 -1 50 25 96 66 242 133 350 161 98 25 80 31 -25 8z"/>
<path d="M2122 4184 c-29 -26 -58 -56 -64 -68 -6 -11 16 3 48 33 32 30 66 60
74 68 8 7 10 13 5 13 -6 0 -34 -21 -63 -46z"/>
<path d="M3300 4086 c0 -2 8 -10 18 -17 15 -13 16 -12 3 4 -13 16 -21 21 -21
13z"/>
<path d="M2540 3691 c-16 -5 11 -8 75 -8 64 -1 116 -7 144 -17 59 -22 64 -19
16 6 -30 16 -61 22 -125 24 -47 2 -96 0 -110 -5z"/>
<path d="M2518 3610 c-175 -22 -285 -57 -353 -115 -25 -21 -17 -19 50 14 98
48 201 70 365 78 209 10 255 -8 351 -135 27 -36 49 -60 49 -54 0 20 -93 134
-129 157 -77 51 -199 72 -333 55z"/>
<path d="M2742 3508 c-17 -13 -69 -54 -114 -91 -136 -111 -251 -153 -337 -123
-38 13 -42 12 -51 -4 -6 -11 -11 -40 -13 -67 -2 -46 0 -49 33 -66 65 -34 132
-19 299 66 180 92 232 111 267 103 15 -4 54 -33 87 -64 53 -50 58 -53 43 -24
-23 44 -12 40 20 -8 15 -22 31 -40 36 -40 14 0 2 34 -53 148 -32 68 -53 101
-60 96 -8 -5 -9 -3 -5 5 10 16 -19 48 -66 72 -47 24 -48 24 -86 -3z m-368
-302 c-23 -73 -31 -65 -9 9 9 32 19 55 21 52 3 -3 -2 -30 -12 -61z"/>
<path d="M2483 3490 c-28 -16 -55 -35 -59 -41 -8 -14 58 22 96 51 36 28 23 24
-37 -10z"/>
<path d="M2160 3369 c-22 -18 -22 -19 -3 -10 12 6 25 16 28 21 9 15 3 12 -25
-11z"/>
<path d="M2140 3274 c-37 -131 10 -277 101 -314 l28 -12 -21 -42 c-15 -28 -22
-64 -24 -116 l-4 -75 19 82 c20 82 41 134 69 166 14 16 13 17 -15 17 -65 0
-134 78 -148 166 -3 24 -1 71 5 105 14 74 8 87 -10 23z"/>
<path d="M2510 3131 c-19 -4 -34 -12 -33 -18 2 -7 -10 -22 -25 -33 -22 -18
-35 -21 -72 -16 -41 5 -43 4 -26 -9 11 -8 30 -15 43 -15 22 0 23 -3 17 -36 -6
-34 -6 -36 14 -25 12 6 24 16 27 21 6 10 80 60 89 60 2 0 7 -12 11 -27 10 -44
44 -73 82 -73 43 0 81 19 63 30 -17 11 -3 31 16 23 14 -5 15 -1 9 25 -7 34 2
40 36 22 11 -6 19 -21 19 -36 0 -25 2 -26 37 -19 21 4 40 10 43 15 3 4 25 10
50 14 25 4 52 11 60 16 11 7 6 8 -16 4 -23 -4 -48 2 -95 25 -115 55 -236 73
-349 52z m180 -81 c0 -12 -28 -25 -36 -17 -9 9 6 27 22 27 8 0 14 -5 14 -10z"/>
<path d="M1780 3034 c-82 -22 -135 -51 -174 -95 -43 -47 -45 -59 -8 -59 15 0
38 -3 52 -6 20 -5 22 -3 10 5 -13 10 -11 15 15 36 37 31 45 31 45 2 0 -31 25
-63 54 -71 34 -8 76 9 76 33 0 10 7 22 16 25 12 4 15 15 12 36 -3 17 -3 30 -1
30 2 0 35 -13 73 -29 37 -16 71 -27 74 -24 14 15 -51 95 -96 119 -34 17 -77
17 -148 -2z"/>
<path d="M2968 3003 c6 -2 18 -2 25 0 6 3 1 5 -13 5 -14 0 -19 -2 -12 -5z"/>
<path d="M2432 2945 c-17 -25 -28 -45 -23 -45 5 0 30 9 56 20 45 19 47 21 33
42 -23 34 -32 32 -66 -17z"/>
<path d="M2720 2944 c-25 -8 -90 -21 -144 -30 -55 -8 -102 -17 -105 -21 -4 -3
39 -3 94 0 101 5 184 26 206 53 14 17 8 16 -51 -2z"/>
<path d="M2815 2905 c-71 -43 -228 -55 -370 -29 l-30 5 30 -17 c39 -22 185
-30 267 -15 59 12 139 49 153 71 9 15 -6 10 -50 -15z"/>
<path d="M1945 2900 c-3 -6 -4 -19 0 -29 5 -16 -3 -22 -43 -35 -86 -29 -157
-36 -212 -22 -27 7 -50 11 -50 9 0 -13 77 -33 125 -33 69 0 255 48 255 66 0
11 -50 54 -63 54 -3 0 -9 -5 -12 -10z"/>
<path d="M2375 2835 c36 -29 117 -67 230 -107 143 -50 109 -24 -48 38 -67 26
-140 55 -162 66 -31 15 -35 15 -20 3z"/>
<path d="M2920 2847 c0 -2 15 -16 33 -33 l32 -29 -29 33 c-28 30 -36 37 -36
29z"/>
<path d="M1880 2773 c-37 -14 -96 -27 -139 -30 -54 -5 -69 -9 -56 -16 46 -25
205 7 266 54 33 26 8 23 -71 -8z"/>
<path d="M2705 2791 c-67 -7 -65 -7 52 -11 67 -3 119 -2 115 2 -12 11 -94 15
-167 9z"/>
<path d="M1753 2650 c-28 -16 -55 -35 -59 -42 -7 -12 101 45 121 63 19 19 -11
8 -62 -21z"/>
<path d="M3220 2522 c0 -5 7 -15 15 -22 8 -7 15 -8 15 -2 0 5 -7 15 -15 22 -8
7 -15 8 -15 2z"/>
<path d="M2318 2486 c-45 -23 -28 -41 41 -44 l64 -3 -15 23 c-19 28 -59 39
-90 24z"/>
<path d="M3206 2411 c-3 -5 1 -11 9 -14 9 -4 12 -1 8 9 -6 16 -10 17 -17 5z"/>
<path d="M3180 2356 c0 -2 7 -7 16 -10 8 -3 12 -2 9 4 -6 10 -25 14 -25 6z"/>
<path d="M3170 2310 c0 -5 7 -10 16 -10 8 0 12 5 9 10 -3 6 -10 10 -16 10 -5
0 -9 -4 -9 -10z"/>
<path d="M3166 2257 c3 -10 9 -15 12 -12 3 3 0 11 -7 18 -10 9 -11 8 -5 -6z"/>
<path d="M3141 2194 c0 -11 3 -14 6 -6 3 7 2 16 -1 19 -3 4 -6 -2 -5 -13z"/>
<path d="M3012 1960 c0 -14 2 -19 5 -12 2 6 2 18 0 25 -3 6 -5 1 -5 -13z"/>
<path d="M2941 1834 c0 -11 3 -14 6 -6 3 7 2 16 -1 19 -3 4 -6 -2 -5 -13z"/>
<path d="M2921 1804 c0 -11 3 -14 6 -6 3 7 2 16 -1 19 -3 4 -6 -2 -5 -13z"/>
<path d="M3847 3481 c-35 -39 -62 -80 -55 -85 2 -2 24 26 50 61 26 34 46 63
44 63 -2 0 -20 -18 -39 -39z"/>
<path d="M3681 3157 c-33 -192 19 -450 100 -496 24 -13 31 -13 70 2 48 18 108
62 98 71 -3 3 -30 -7 -60 -24 -30 -16 -64 -30 -76 -30 -75 0 -133 215 -119
438 4 56 5 102 2 102 -2 0 -9 -28 -15 -63z"/>
<path d="M3914 3145 c-17 -42 -19 -146 -2 -163 33 -33 58 14 58 105 0 90 -29
121 -56 58z"/>
<path d="M2410 2119 c-102 -28 -131 -32 -259 -33 -170 -1 -176 -5 -142 -80 37
-84 131 -234 166 -265 44 -38 104 -47 217 -33 84 10 147 32 198 69 18 14 22
14 15 3 -28 -49 -47 -69 -61 -63 -12 4 -14 0 -8 -21 9 -36 -30 -51 -98 -36
-27 5 -103 10 -168 10 -113 0 -120 1 -133 23 -8 12 -33 55 -57 95 -23 40 -44
71 -46 69 -10 -9 53 -163 76 -187 l25 -27 195 -5 c168 -5 199 -4 223 10 51 30
133 221 168 390 13 60 12 63 -9 85 -19 19 -35 22 -105 24 -66 2 -105 -3 -197
-28z m243 -13 c9 -5 17 -16 16 -25 0 -11 -2 -12 -6 -3 -4 10 -11 8 -29 -9 -20
-19 -26 -20 -40 -8 -15 12 -19 11 -32 -9 -15 -23 -56 -30 -68 -11 -5 8 -12 5
-23 -9 -33 -42 -290 -71 -325 -37 -9 9 -17 11 -21 5 -12 -19 -34 -10 -50 19
-19 37 -14 39 95 34 86 -5 147 5 290 45 65 18 160 22 193 8z m-110 -199 c45
-19 43 -27 -25 -101 -36 -39 -53 -49 -108 -62 -127 -32 -220 -1 -220 72 0 41
49 101 88 107 58 11 227 0 265 -16z"/>
<path d="M2649 1683 c-31 -54 -57 -87 -87 -108 l-44 -30 -177 0 c-206 0 -218
4 -263 80 -16 27 -26 39 -23 25 14 -51 57 -112 88 -125 18 -7 70 -16 116 -20
80 -7 83 -8 60 -22 -22 -13 -17 -14 56 -8 161 12 232 43 284 122 46 70 38 71
-25 4 -31 -34 -61 -61 -67 -61 -6 0 8 19 30 43 23 23 55 72 72 110 17 37 29
67 27 67 -2 0 -23 -35 -47 -77z"/>
<path d="M2820 1620 c0 -5 5 -10 11 -10 5 0 7 5 4 10 -3 6 -8 10 -11 10 -2 0
-4 -4 -4 -10z"/>
<path d="M2205 1600 c-19 -5 12 -8 85 -8 63 0 124 3 135 8 25 11 -177 11 -220
0z"/>
<path d="M2577 1382 c3 -12 9 -25 14 -28 14 -8 11 10 -6 32 -13 18 -14 18 -8
-4z"/>
<path d="M2523 1376 c4 -10 7 -21 7 -26 0 -4 12 -15 26 -25 25 -16 26 -16 22
2 -2 10 -11 17 -21 15 -11 -2 -17 4 -17 17 0 11 -5 23 -12 27 -8 5 -9 2 -5
-10z"/>
<path d="M2296 1352 c-3 -5 1 -9 9 -9 8 0 12 4 9 9 -3 4 -7 8 -9 8 -2 0 -6 -4
-9 -8z"/>
<path d="M2257 1320 c3 -11 7 -20 9 -20 2 0 4 9 4 20 0 11 -4 20 -9 20 -5 0
-7 -9 -4 -20z"/>
<path d="M3047 1663 c-27 -97 -70 -407 -54 -393 19 18 91 450 75 450 -3 0 -13
-26 -21 -57z"/>
<path d="M3592 1546 c-57 -171 -213 -529 -352 -807 -45 -89 -79 -163 -77 -165
6 -6 179 315 236 438 95 202 240 600 229 626 -1 5 -18 -37 -36 -92z"/>
<path d="M3805 1021 c-57 -176 -149 -413 -195 -499 -16 -31 -63 -93 -102 -137
-62 -68 -66 -75 -28 -44 69 56 137 145 185 245 97 203 200 502 193 561 -2 21
-17 -15 -53 -126z"/>
<path d="M3044 465 c-22 -55 -10 -82 59 -126 62 -40 103 -56 114 -45 4 3 -2 6
-13 6 -23 0 -110 60 -132 91 -10 14 -13 35 -9 65 2 24 3 44 0 44 -2 0 -11 -16
-19 -35z"/>
<path d="M1592 1482 c-20 -18 -33 -43 -37 -68 -3 -21 -9 -52 -11 -69 l-5 -30
20 25 c46 56 94 170 72 170 -5 0 -23 -13 -39 -28z"/>
<path d="M1802 1030 c52 -150 82 -230 85 -227 4 5 -74 228 -84 236 -3 3 -4 -1
-1 -9z"/>
<path d="M1412 785 c-1 -120 10 -173 23 -121 6 23 -4 137 -20 216 -1 8 -3 -34
-3 -95z"/>
<path d="M890 886 c-193 -87 -309 -149 -325 -176 -4 -7 10 0 31 14 22 14 140
73 264 132 189 89 264 128 240 123 -3 0 -97 -42 -210 -93z"/>
<path d="M1245 4841 l-200 -68 -123 -169 c-219 -301 -359 -518 -350 -545 6
-19 230 239 473 544 l109 138 158 80 c225 114 218 116 -67 20z"/>
<path d="M3970 4460 c-15 -16 -35 -45 -44 -64 -45 -95 66 -130 139 -44 71 84
-20 188 -95 108z"/>
<path d="M276 4212 c-137 -112 -233 -198 -225 -200 8 -2 21 -6 29 -9 8 -4 21
-5 28 -4 17 3 15 -6 -9 -41 -46 -64 -7 -31 112 95 134 141 300 324 313 345 18
29 -23 -1 -248 -186z"/>
<path d="M4133 4307 c-22 -28 -72 -99 -112 -157 l-73 -105 57 55 c53 52 183
200 199 227 4 7 -2 16 -13 22 -16 9 -24 3 -58 -42z"/>
<path d="M494 3993 c-15 -20 -23 -33 -16 -29 13 8 56 66 49 66 -3 0 -17 -17
-33 -37z"/>
<path d="M4626 3843 c-179 -172 -201 -195 -131 -135 93 80 281 261 271 262 -4
0 -67 -57 -140 -127z"/>
<path d="M270 3953 c0 -5 9 -18 20 -28 11 -10 20 -14 20 -8 0 5 -9 18 -20 28
-11 10 -20 14 -20 8z"/>
<path d="M157 3832 l-25 -39 94 -14 c82 -13 92 -13 81 0 -17 20 -107 91 -117
91 -4 0 -19 -17 -33 -38z"/>
<path d="M4889 3787 c-46 -40 -142 -121 -213 -180 -70 -59 -157 -134 -193
-167 -62 -59 -64 -62 -48 -80 17 -19 22 -14 169 133 83 84 203 201 266 259 63
59 112 107 109 107 -4 1 -44 -32 -90 -72z"/>
<path d="M5085 3810 c-32 -33 -24 -40 14 -11 13 10 22 23 20 30 -3 7 -16 0
-34 -19z"/>
<path d="M0 3660 l0 -50 88 -57 c124 -80 264 -165 267 -161 2 2 -34 49 -79
106 -83 105 -88 109 -258 203 -16 9 -18 4 -18 -41z"/>
<path d="M657 3632 c-25 -27 -22 -78 5 -96 32 -22 55 -20 83 9 30 29 32 54 5
83 -25 27 -71 29 -93 4z"/>
<path d="M5024 3582 l-91 -67 -9 -92 c-5 -51 -6 -89 -2 -85 35 38 198 279 198
293 0 11 -1 19 -2 19 -2 -1 -44 -31 -94 -68z"/>
<path d="M45 3430 c-11 -34 22 -60 248 -203 l208 -130 -43 -44 c-23 -23 -46
-43 -51 -43 -5 0 -95 52 -200 116 -106 64 -195 118 -199 121 -5 2 -8 -18 -8
-46 l0 -50 140 -86 c135 -84 139 -87 120 -103 -14 -12 -26 -46 -40 -112 -30
-140 -30 -140 -39 -140 -5 0 -45 25 -89 55 -45 30 -83 55 -86 55 -4 0 -6 -13
-6 -29 0 -31 23 -49 201 -156 l86 -53 10 61 9 62 12 -109 c7 -59 11 -110 9
-113 -5 -5 -190 87 -275 137 l-52 30 0 -30 c0 -29 5 -33 83 -67 45 -20 147
-70 226 -110 79 -41 145 -72 146 -71 5 5 -70 230 -90 271 l-18 39 36 36 37 37
0 -51 c0 -35 17 -97 56 -209 30 -88 60 -165 66 -172 19 -23 -10 -15 -101 28
-85 41 -88 41 -206 43 l-120 1 165 -71 c91 -40 232 -104 314 -143 81 -39 150
-71 151 -71 2 0 -10 35 -27 78 -16 42 -61 162 -99 266 l-69 189 36 216 c21
119 38 225 38 235 1 14 -52 50 -214 148 -118 71 -247 147 -287 169 -69 39 -72
39 -78 19z"/>
<path d="M4745 3354 c-49 -30 -153 -91 -231 -135 l-141 -80 -43 -137 c-23 -75
-46 -142 -51 -148 -5 -6 -48 -35 -94 -64 -91 -55 -99 -64 -109 -124 l-8 -39
24 16 c13 9 82 55 153 102 l130 86 48 133 49 134 116 90 c107 83 264 221 252
221 -3 0 -45 -24 -95 -55z"/>
<path d="M5018 3173 l-96 -45 -35 -77 c-25 -53 -32 -77 -23 -79 7 -2 67 20
134 49 l122 51 0 74 c0 41 -1 74 -2 73 -2 0 -46 -21 -100 -46z"/>
<path d="M4965 2932 c-228 -103 -252 -118 -270 -166 -92 -251 -225 -645 -222
-658 4 -13 -34 -37 -162 -106 -91 -50 -192 -103 -223 -118 l-58 -28 0 -105 0
-104 73 69 c98 94 297 270 382 339 100 80 192 122 427 195 l208 65 0 54 c0 38
-3 52 -12 48 -7 -2 -103 -30 -212 -62 -110 -31 -206 -59 -215 -63 -14 -5 -13
-2 1 14 10 11 45 105 79 210 34 104 66 194 71 201 5 7 72 52 149 100 l139 88
0 48 c0 26 -1 47 -2 47 -2 -1 -70 -31 -153 -68z"/>
<path d="M0 2551 c0 -12 288 -143 303 -138 12 5 -270 147 -292 147 -6 0 -11
-4 -11 -9z"/>
<path d="M950 2463 c-64 -23 -46 -123 22 -123 44 0 75 59 50 96 -7 10 -47 35
-54 33 -2 0 -10 -3 -18 -6z"/>
<path d="M848 2158 c86 -160 273 -478 325 -551 25 -34 73 -85 108 -112 61 -47
62 -48 34 -13 -116 141 -154 194 -257 358 -63 102 -147 240 -187 308 -40 67
-75 122 -78 122 -2 0 22 -51 55 -112z"/>
<path d="M233 2208 c-13 -6 -23 -14 -23 -19 0 -12 74 -100 129 -154 l52 -50
-26 65 c-32 79 -85 170 -100 169 -5 0 -20 -5 -32 -11z"/>
<path d="M3776 2099 c-50 -39 -26 -119 37 -119 63 0 90 80 41 119 -15 12 -32
21 -39 21 -7 0 -24 -9 -39 -21z"/>
<path d="M420 2030 c0 -23 132 -250 146 -250 7 0 -115 231 -132 250 -12 12
-14 12 -14 0z"/>
<path d="M4441 1936 c-16 -19 -11 -46 12 -60 25 -16 52 4 52 40 0 24 -5 30
-26 32 -14 2 -31 -4 -38 -12z"/>
<path d="M0 1777 l0 -145 128 -163 c70 -90 156 -202 191 -248 81 -106 232
-283 237 -278 2 2 -11 37 -30 78 -18 41 -50 121 -71 177 -20 57 -60 154 -89
216 l-53 112 66 57 c37 31 81 71 98 89 l31 33 -44 74 c-24 41 -47 78 -51 82
-5 5 -50 -27 -102 -71 -51 -44 -96 -78 -100 -75 -5 2 -25 34 -46 69 -54 94
-84 123 -127 131 l-38 6 0 -144z m93 -40 c40 -19 81 -44 91 -55 23 -26 22 -26
-38 -6 -26 9 -49 14 -51 12 -3 -2 24 -67 60 -144 35 -76 56 -128 47 -115 -31
43 -192 321 -192 331 0 14 4 13 83 -23z"/>
<path d="M590 1902 c0 -4 29 -60 65 -124 36 -65 75 -143 86 -175 19 -52 108
-264 114 -271 1 -1 74 25 162 59 140 53 160 63 156 80 -3 11 -9 21 -13 24 -4
3 -63 -6 -130 -20 -68 -14 -127 -25 -131 -25 -9 0 -186 266 -259 389 -41 68
-50 80 -50 63z"/>
<path d="M3801 1861 c-24 -44 -3 -75 30 -45 23 21 21 57 -3 62 -9 2 -21 -6
-27 -17z"/>
<path d="M5020 1812 c-124 -77 -142 -92 -130 -107 7 -9 3 -22 -15 -49 -13 -20
-21 -36 -17 -36 5 0 34 21 67 48 61 49 194 192 179 192 -5 0 -43 -22 -84 -48z"/>
<path d="M760 1831 c0 -23 50 -114 93 -169 39 -52 124 -129 131 -121 4 4 -184
262 -210 289 -11 11 -14 11 -14 1z"/>
<path d="M3865 1819 c-4 -6 -5 -13 -2 -16 7 -7 27 6 27 18 0 12 -17 12 -25 -2z"/>
<path d="M1179 1793 c24 -34 131 -140 131 -130 0 3 -11 31 -24 61 -25 56 -70
96 -109 96 -17 0 -17 -2 2 -27z"/>
<path d="M3887 1723 c-13 -12 -7 -43 8 -43 16 0 38 34 28 44 -8 8 -28 8 -36
-1z"/>
<path d="M4312 1673 c-40 -19 -48 -34 -32 -62 12 -24 42 -27 59 -7 15 18 27
86 15 86 -5 0 -24 -8 -42 -17z"/>
<path d="M5079 1634 l-34 -36 38 18 c23 11 37 25 37 36 0 24 -1 24 -41 -18z"/>
<path d="M4484 1642 c-28 -22 -47 -60 -40 -78 8 -21 49 -17 80 7 40 32 32 90
-12 89 -4 0 -17 -8 -28 -18z"/>
<path d="M4079 1571 c-31 -25 -21 -35 11 -11 14 10 22 21 19 25 -3 3 -17 -3
-30 -14z"/>
<path d="M4935 1444 c-99 -69 -186 -129 -194 -134 -11 -6 -9 -13 9 -38 13 -17
28 -28 34 -25 6 4 84 65 174 136 143 114 162 132 162 158 0 16 -1 29 -2 29 -2
0 -84 -57 -183 -126z"/>
<path d="M4797 1468 c-20 -16 -37 -34 -37 -39 0 -13 51 14 73 39 30 33 5 33
-36 0z"/>
<path d="M4625 1465 c-16 -13 -26 -27 -23 -30 3 -4 21 7 40 24 39 36 26 41
-17 6z"/>
<path d="M1173 1420 c-7 -10 -9 -21 -4 -24 13 -8 45 20 37 32 -10 17 -19 15
-33 -8z"/>
<path d="M726 1413 c-17 -5 -18 -14 -11 -171 4 -92 8 -168 10 -170 1 -2 28 7
60 20 56 23 57 24 52 58 -6 50 -76 270 -85 269 -4 -1 -15 -3 -26 -6z"/>
<path d="M870 1270 c0 -5 5 -10 11 -10 5 0 7 5 4 10 -3 6 -8 10 -11 10 -2 0
-4 -4 -4 -10z"/>
<path d="M5042 1139 c-26 -24 -21 -39 14 -39 20 0 24 5 24 30 0 35 -8 37 -38
9z"/>
<path d="M0 1126 c0 -49 127 -266 155 -266 8 0 15 3 15 6 0 6 -132 233 -156
269 -13 18 -14 18 -14 -9z"/>
<path d="M140 785 c-27 -33 27 -64 58 -33 17 17 15 23 -13 36 -32 15 -30 15
-45 -3z"/>
<path d="M2240 740 c30 -10 251 -33 257 -26 2 2 -27 11 -66 20 -73 17 -238 22
-191 6z"/>
<path d="M10 700 c0 -19 3 -21 12 -12 9 9 9 15 0 24 -9 9 -12 7 -12 -12z"/>
<path d="M2485 571 c-71 -9 -115 -46 -162 -136 -15 -29 -15 -29 2 -15 10 8 68
40 129 71 65 33 112 63 114 72 4 18 1 18 -83 8z"/>
<path d="M1820 526 c0 -20 65 -146 97 -185 39 -49 93 -100 106 -101 5 0 -5 17
-21 38 -16 20 -64 86 -106 146 -42 60 -76 106 -76 102z"/>
<path d="M360 458 c0 -2 7 -38 15 -81 8 -43 15 -106 14 -140 l-1 -62 -23 65
c-31 85 -31 68 0 -60 48 -197 39 -180 90 -180 25 0 45 2 45 5 0 39 -124 455
-136 455 -2 0 -4 -1 -4 -2z"/>
<path d="M4600 323 c-27 -70 -75 -210 -95 -275 l-14 -48 45 0 44 0 0 63 c1 34
11 118 24 187 13 69 22 126 21 128 -1 1 -12 -24 -25 -55z"/>
<path d="M1070 311 c0 -10 25 -21 48 -21 15 1 14 3 -2 15 -22 17 -46 20 -46 6z"/>
<path d="M1145 310 c-4 -6 10 -10 34 -10 23 0 41 5 41 10 0 6 -15 10 -34 10
-19 0 -38 -4 -41 -10z"/>
<path d="M1275 310 c-7 -12 -9 -11 33 -13 20 -1 32 3 32 11 0 14 -56 17 -65 2z"/>
<path d="M1233 258 l-31 -30 -38 26 c-46 31 -65 32 -87 8 -23 -25 -25 -223 -3
-242 10 -8 57 -11 143 -11 108 1 130 4 141 18 8 11 12 53 12 120 0 113 -6 123
-76 136 -25 5 -36 0 -61 -25z m105 -115 l3 -111 -25 -4 c-34 -7 -36 -3 -36 55
0 34 -4 47 -12 45 -8 -3 -11 -20 -9 -48 3 -49 -7 -60 -56 -60 l-33 0 0 55 c0
30 -4 55 -10 55 -5 0 -10 -23 -10 -51 l0 -50 -32 3 -33 3 0 110 c0 103 1 110
20 113 12 2 32 -9 49 -27 31 -33 43 -32 86 9 24 23 35 26 62 21 l33 -7 3 -111z"/>
<path d="M1120 157 c0 -11 10 -13 45 -9 39 4 45 2 39 -12 -4 -11 -1 -16 10
-16 9 0 16 7 16 16 0 14 7 15 41 10 31 -5 40 -3 37 6 -7 20 -188 24 -188 5z"/>
<path d="M4874 94 c-30 -47 -53 -89 -50 -92 3 -3 8 -3 10 -1 10 10 105 179
100 179 -2 0 -29 -39 -60 -86z"/>
<path d="M5031 91 c-39 -45 -71 -83 -71 -86 0 -3 6 -5 13 -5 15 0 142 158 134
166 -3 3 -37 -31 -76 -75z"/>
<path d="M552 20 c0 -14 2 -19 5 -12 2 6 2 18 0 25 -3 6 -5 1 -5 -13z"/>
</g>
</svg>